<?xml version="1.0" encoding="utf-8"?>
<!-- Generator: Adobe Illustrator 23.0.6, SVG Export Plug-In . SVG Version: 6.00 Build 0)  -->
<svg version="1.1" id="Layer_1" xmlns="http://www.w3.org/2000/svg" xmlns:xlink="http://www.w3.org/1999/xlink" x="0px" y="0px"
	 viewBox="0 0 864 864" enable-background="new 0 0 864 864" xml:space="preserve">
<g>
	<path d="M415.9507,617.0929c-7.7698-0.4084-15.1875,5.653-17.2575,7.4998c-0.0012,0.1354,0.0079,0.269-0.009,0.4065
		c-0.0317,0.2603-2.1359,17.7502-2.4267,40.3201c9.4225,0.4763,19.145,0.616,29.0402,0.3052
		c0.3787-20.5779,0.9613-41.1379,1.0034-42.6293c0.0052-0.18,0.0372-0.3514,0.0678-0.5231
		C423.2478,619.0702,419.8294,617.2964,415.9507,617.0929z"/>
	<path d="M462.2607,663.3379c-0.451-21.6592-2.5913-37.1226-2.6249-37.3635c-0.169-1.1909,0.278-2.3242,1.0941-3.0887
		c-2.7588-4.233-5.948-6.5609-9.7318-7.0555c-6.801-0.8986-14.3697,4.4214-17.5994,7.2998
		c-0.0002,0.0229,0.0054,0.0443,0.0048,0.0673c-0.0108,0.3657-0.6014,21.2062-0.9898,42.1223
		C437.2588,665.0585,448.2592,664.4216,462.2607,663.3379z"/>
	<path d="M414.6751,672.8976c-6.248,0-12.4054-0.1678-18.4446-0.4687c0.0492,9.3333,0.4446,19.2665,1.4378,29.051
		c0.0622,0.6122-0.05,1.1965-0.2732,1.7264c1.7939,1.5581,8.9484,7.2855,16.7785,6.9153c4.0644-0.1982,7.6675-2.008,10.9854-5.4806
		c-0.0115-0.0956-0.0354-0.187-0.0393-0.2849c-0.2397-6.142-0.1528-18.4302,0.0564-31.6376
		C421.6547,672.8256,418.1471,672.8976,414.6751,672.8976z"/>
	<path d="M432.2182,704.0786c0.0004,0.011-0.0023,0.0212-0.002,0.0322c2.6556,1.9688,9.843,6.6519,17.3468,5.9344
		c4.2578-0.41,7.9341-2.489,11.2159-6.2978c1.1765-11.6014,1.5836-22.9554,1.5633-33.2543
		c-14.2851,1.091-25.3978,1.7101-30.052,1.9506C432.0768,685.7173,431.9836,698.0643,432.2182,704.0786z"/>
	<path d="M527.3839,663.5604c-7.8521,1.1557-15.9529,2.183-23.9731,3.0916c0.5004,11.6495,0.3545,24.1846-1.1978,35.6624
		c-0.0477,0.3518-0.1577,0.6771-0.2971,0.9846c5.4287,2.6818,16.2125,6.6497,23.1595,3.5627
		c3.6008-1.6007,5.9091-4.9507,7.0558-10.2444l0.082-0.3779c-0.3942-0.4467-0.682-0.9982-0.8125-1.6232
		C529.4516,685.2624,528.1934,674.2704,527.3839,663.5604z"/>
	<path d="M526.904,656.4214c-1.194-20.1962-0.9215-37.7475-0.9009-38.9291c0.0005-0.0272,0.0082-0.0523,0.0093-0.0794
		c-4.0268-2.9822-8.1341-4.2346-12.22-3.6978c-7.6584,1.0179-13.5063,7.8335-15.0021,9.7333
		c0.5016,2.8409,3.0228,17.709,4.231,36.0544C511.037,658.594,519.11,657.5693,526.904,656.4214z"/>
	<path d="M495.9169,660.281c-1.2942-19.817-4.1464-35.7335-4.1941-35.9965c-0.0636-0.3489-0.0571-0.6913-0.0198-1.0266
		c-9.9958-8.1159-23.7296,0.8661-25.0293,1.7523c0.0995,0.7126,2.2045,16.1709,2.6779,37.7605
		C477.6241,662.0867,486.6599,661.2603,495.9169,660.281z"/>
	<path d="M496.3029,667.4286c-9.3852,0.9911-18.5181,1.8206-26.8612,2.5031c0.0363,10.3608-0.352,21.7903-1.4937,33.49
		c3.7056,3.0534,11.6837,8.2913,18.3146,7.2589c3.5909-0.558,6.4899-2.8703,8.8607-7.0687l0.2749-0.4865
		c-0.2133-0.5443-0.3102-1.142-0.2263-1.7624C496.632,690.5683,496.7744,678.6257,496.3029,667.4286z"/>
	<path d="M356.1626,668.446c-9.0179-1.3273-17.4566-2.852-25.1628-4.4303c-1.118,8.7218-2.6845,18.8286-4.8734,30.5292
		c-0.089,0.4761-0.2764,0.9062-0.5264,1.2875c2.4218,3.9674,12.0387,16.7354,31.701,9.0217
		c-0.0889-0.2714-0.1577-0.5521-0.179-0.8499C356.1909,690.9633,355.9793,678.9841,356.1626,668.446z"/>
	<path d="M299.5819,622.7355c-1.3591-1.2063-2.7657-1.798-4.2619-1.798c-0.0347,0-0.0694,0-0.1031,0.001
		c-3.46,0.0626-7.1067,3.0994-9.2401,5.343c0.0735,0.205,0.1337,0.4175,0.1692,0.6404c0.0727,0.4589,1.1272,7.3322,1.0479,18.2465
		c1.6789,0.5746,5.8999,1.977,12.1937,3.7966c0.5567-14.5251,0.1607-25.4174,0.1545-25.5914
		C299.5339,623.1559,299.5523,622.9439,299.5819,622.7355z"/>
	<path d="M299.0377,656.251c-5.4174-1.5388-9.519-2.8315-12.0654-3.6665c-0.2768,5.3127-0.837,11.26-1.8462,17.6722
		c0.0777,0.2569,0.135,0.5229,0.1528,0.8023c0.1873,2.9426,2.4729,6.2283,5.4334,7.813c1.53,0.8196,3.8127,1.4889,6.4273,0.4523
		c-0.138-0.4663-0.1881-0.9659-0.1187-1.4791C298.0049,670.5694,298.637,663.1638,299.0377,656.251z"/>
	<path d="M389.1239,672.0117c-8.958-0.6093-17.6085-1.5025-25.8447-2.5787c-0.1643,10.1797,0.0437,21.662,0.9294,34.0658
		c0.0433,0.6066-0.0831,1.1807-0.3162,1.6992c3.4454,2.1169,14.6872,7.5905,27.1407-1.641
		c-0.2271-0.4089-0.3833-0.8649-0.4336-1.3596C389.5666,692.02,389.1628,681.6868,389.1239,672.0117z"/>
	<path d="M304.0618,678.7968c-0.0559,0.4121-0.1867,0.7942-0.3666,1.1442l-0.0804,2.0403c-0.001,0.0516-0.1536,6.6941,3.9784,9.9529
		c2.5546,2.0162,6.4424,2.4537,11.5468,1.3381c0.002-0.0114,0.0008-0.0224,0.0029-0.0338
		c2.216-11.8451,3.7842-22.0115,4.8876-30.706c-6.7225-1.4852-12.7631-2.9771-17.9938-4.3625
		C305.624,664.8171,304.9997,671.8627,304.0618,678.7968z"/>
	<path d="M571.9716,646.4655c-0.1103-10.03,0.972-17.3726,1.0518-17.8972c0.0543-0.3565,0.1747-0.683,0.3229-0.9919
		c-1.7847-2.9709-3.9003-4.7559-6.3044-5.2889c-3.1945-0.708-6.3757,0.7758-7.9246,1.6734
		c-0.1143,2.5497-0.5645,13.866-0.1963,26.4315C563.8333,649.1699,568.2445,647.8629,571.9716,646.4655z"/>
	<path d="M325.7141,618.307c-0.1321-0.6099-0.0834-1.2119,0.085-1.7701c-3.2489-2.5569-6.2935-3.5408-9.0577-2.8932
		c-4.9973,1.1705-8.7844,7.4038-9.8211,9.7072l-0.2538,0.5634c0.0846,2.9428,0.3183,13.6199-0.2516,27.0106
		c5.283,1.4206,11.4858,2.9744,18.4494,4.5248C327.7767,628.4921,325.7436,618.4412,325.7141,618.307z"/>
	<path d="M350.3338,612.5892c-6.8694-1.8861-14.5136,1.4744-18.006,3.3367c0.1414,0.2728,0.2617,0.5599,0.3301,0.8747
		c0.1294,0.5975,2.3363,11.4904-0.8138,40.1448c7.4977,1.5461,15.7189,3.043,24.5067,4.3534
		c0.83-23.2757,3.4567-37.9521,3.6248-38.8666c0.0607-0.3329,0.1797-0.6372,0.3223-0.9263
		C357.7886,616.6788,354.5284,613.7421,350.3338,612.5892z"/>
	<path d="M552.048,623.0546c0.0211-0.4081,0.1232-0.7899,0.268-1.1488c-1.2636-3.8688-3.2098-6.3152-5.8114-7.2402
		c-4.5928-1.6355-10.5618,1.1641-13.4141,2.7692c0.0021,0.0607,0.016,0.1181,0.015,0.1794
		c-0.0048,0.2843-0.2743,17.6818,0.8754,37.718c6.2905-1.0148,12.3086-2.117,17.8701-3.309
		C551.3408,637.2415,552.002,623.9478,552.048,623.0546z"/>
	<path d="M382.7537,617.19c-6.6336-0.9472-13.5444,3.8632-15.7598,5.5765c0.0269,0.3093,0.0285,0.6239-0.0299,0.9442
		c-0.0409,0.2208-2.6957,15.118-3.5053,38.5889c8.18,1.0823,16.7855,1.9809,25.7006,2.5961
		c0.3136-22.861,2.4412-40.5005,2.4741-40.7647c0.0325-0.2656,0.0987-0.5176,0.185-0.7593
		C389.2409,619.728,386.2681,617.6896,382.7537,617.19z"/>
	<path d="M559.2285,657.6288c0.4034,7.1399,1.1295,14.222,2.3859,19.9282c0.0597,0.2711,0.0788,0.5402,0.0758,0.8064l0.0927,0.0588
		c0.0158,0.0099,3.8525,2.3212,7.9489,1.1923c2.5648-0.7077,4.8364-2.6561,6.7694-5.7937
		c-0.6274-0.4612-1.1099-1.1281-1.3271-1.9391c-1.6279-6.0773-2.4902-12.259-2.8988-17.9824
		C568.4281,655.2248,564.035,656.4667,559.2285,657.6288z"/>
	<path d="M721.5341,469.5958c-0.5015-3.6801-3.6255-6.2788-11.2741-12.3208c-2.6143-2.0656-5.6994-4.5051-9.1893-7.4637
		c-0.0031-0.0028-0.0066-0.0053-0.0098-0.0082c-3.72-3.1541-7.9001-6.8986-12.477-11.431
		c-29.4515-29.168-22.0041-68.9312-17.5549-92.6891c0.9505-5.0721,1.7712-9.4524,2.0368-12.689
		c0.3469-4.2173-4.7297-12.0408-10.6091-21.0992c-7.2832-11.223-16.2975-25.122-22.623-42.4925
		c-0.3564,3.9051-1.1771,6.1108-2.0218,7.5696c-2.1131,5.6832-6.2729,9.7216-10.9816,11.0327
		c-1.6147,0.4491-3.2925,0.5762-4.9756,0.3411c-3.8997-0.5473-8.1628-3.3586-9.8781-9.4975
		c-4.7621,2.3986-9.3124,2.6043-12.8768,0.4874c-4.4683-2.653-6.569-8.4723-5.6197-15.5663l0.0748-0.3717
		c1.8269-6.6674,7.8909-14.1971,18.3669-22.8054c-6.3155,2.951-11.0637,4.7262-14.6794,5.7318
		c-5.0096,1.3933-7.8646,1.3243-9.7779,0.9178c-8.1353-0.3335-14.5952-5.0929-15.7589-11.6493
		c-0.6878-3.8756,0.6641-8.8007,5.9689-12.3331c-3.7549-3.7843-5.3605-8.0466-4.4537-12.0919
		c1.1371-5.0693,6.0151-8.8667,13.0592-10.1669l0.3752-0.043c6.9067-0.3292,15.9476,3.1051,27.3839,10.4029
		c-11.3698-12.1479-13.556-17.8528-13.91-21.2043c-2.2048-7.8373,0.3194-15.4536,6.1911-18.5916
		c3.468-1.8533,8.5735-2.0964,13.5759,1.8516c2.4351-4.7413,5.9978-7.5824,10.1166-7.9805
		c5.1732-0.4902,10.2991,2.9742,13.7137,9.2653l0.1577,0.3442c1.7107,4.508,1.9989,10.5738,0.8691,18.2816
		c0.5721,1.0346,0.806,2.2624,0.5381,3.5091c-0.2794,1.3001-0.5225,2.5803-0.7613,3.8582
		c6.8029-11.6199,10.9961-14.9305,13.8002-16.1836c6.7645-4.5233,14.7905-4.4875,19.5953,0.1246
		c2.8403,2.7263,4.6501,7.5024,2.4464,13.4832c5.2626,0.8444,9.0717,3.3412,10.7228,7.1443
		c2.0687,4.7654,0.3643,10.713-4.559,15.9095l-0.2787,0.2573c-2.6614,2.1425-6.28,3.8522-10.8923,5.135
		c-4.7281,1.315-10.5417,2.1655-17.4006,2.5913c16.371,3.1179,21.5036,6.4408,23.7654,8.9404
		c6.3995,5.0345,8.8483,12.6755,5.9537,18.6701c-1.7119,3.546-5.6923,6.7443-12.0613,6.5044
		c0.8278,5.2661-0.3667,9.6624-3.4705,12.41c-1.2148,1.0739-2.6529,1.8348-4.2529,2.2799c-3.525,0.9818-7.839,0.4271-12.2866-1.6853
		l-0.3295-0.1851c-0.8544-0.5573-1.6971-1.2195-2.5311-1.9646c5.5957,12.7729,12.4767,23.396,18.2194,32.2444
		c7.4553,11.4872,12.8411,19.787,12.2108,27.4558c-0.3093,3.7584-1.1745,8.3775-2.1765,13.7257
		c-4.3431,23.188-10.9064,58.2299,14.7213,83.6094c2.1259,2.1053,4.1494,4.0228,6.0754,5.7834
		c4.374-15.8716,13.7845-55.6639,14.1259-105.2514c0.4073-59.0992-12.3743-144.6765-75.5768-216.7472
		c-52.2862-59.624-119.363-93.0391-193.9784-96.6324c-75.7587-3.6424-153.453,24.6728-207.7874,75.7626
		c-88.4181,83.137-108.0041,240.6257-75.7931,340.4604c1.7484-1.6108,3.5717-3.344,5.4816-5.2357
		c25.6277-25.3794,19.0649-60.4218,14.7218-83.6099c-1.0015-5.3481-1.8668-9.9668-2.176-13.7252
		c-0.6304-7.6689,4.756-15.9686,12.2108-27.4559c4.2477-6.5453,9.1195-14.063,13.6339-22.6992
		c-1.0368-0.1594-2.0354-0.4669-2.9812-0.9326c-4.662-2.2954-7.2114-7.9325-6.8201-15.079l0.0456-0.3765
		c1.2998-6.7899,6.7562-14.7708,16.5269-24.1721c-6.0652,3.4359-10.6601,5.577-14.1861,6.8624
		c-4.8853,1.7809-7.737,1.9355-9.6762,1.6799c-8.1365,0.3038-14.9488-3.9359-16.6219-10.381
		c-0.9888-3.81-0.0263-8.8257,4.986-12.7623c-4.0396-3.479-5.9736-7.6026-5.3858-11.7064
		c0.7371-5.1427,5.3031-9.3101,12.2238-11.1572l0.3708-0.0723c6.8598-0.8685,16.1416,1.8482,28.1138,8.2291
		c-12.2852-11.2214-14.9108-16.7377-15.526-20.0514c-2.8111-7.6408-0.8903-15.4312,4.718-19.0188
		c3.3124-2.1189,8.3833-2.7606,13.6792,0.7841c2.0568-4.9173,5.3864-8.0283,9.4614-8.7474
		c5.1189-0.8933,10.5002,2.1595,14.3963,8.1643l0.1842,0.3307c2.9521,6.2547,3.2453,15.9219,0.8885,29.2814
		c6.8648-15.16,11.2949-19.3642,14.2536-20.9751c6.39-5.0385,14.3943-5.6306,19.5451-1.4085
		c3.0447,2.4959,5.2227,7.1157,3.4934,13.2506c5.3124,0.4302,9.3052,2.6214,11.2488,6.2837
		c2.435,4.589,1.201,10.6516-3.3007,16.2174l-0.2577,0.2782c-2.4857,2.3441-5.9595,4.3316-10.4574,5.9713
		c-4.6108,1.6808-10.3401,2.9834-17.1446,3.9444c16.5649,1.8278,21.9416,4.7391,24.392,7.0542
		c6.7736,4.5185,9.8127,11.9446,7.3958,18.1473c-1.4293,3.669-5.1474,7.1689-11.5157,7.4278
		c1.2371,5.1852,0.3902,9.6614-2.4891,12.6434c-1.1271,1.1657-2.5013,2.0367-4.0617,2.6056
		c-3.4374,1.2545-7.7814,1.0389-12.3807-0.7191l-0.3431-0.1587c-6.1347-3.3492-12.1302-11.1156-18.1632-23.5282
		c3.4201,16.6299,2.2834,22.7079,0.8154,25.7739c-1.6622,5.8311-5.4934,10.1825-10.0851,11.8579
		c-1.5747,0.574-3.2374,0.832-4.9337,0.7292c-3.228-0.1977-6.8174-1.9031-9.2115-5.8206
		c-5.2786,10.747-11.2205,19.9206-16.3175,27.7748c-5.8789,9.0584-10.956,16.882-10.6091,21.0992
		c0.2661,3.2361,1.0863,7.6164,2.0363,12.6885c4.4497,23.7579,11.8971,63.5216-17.5559,92.6896
		c-8.8746,8.7894-16.2734,14.6341-21.6756,18.9029c-7.6481,6.042-10.7721,8.6407-11.2731,12.3208
		c-0.6492,4.7644,2.4793,13.1157,8.4806,26.8587c18.2686,41.8416,31.8674,44.3344,49.0838,47.4911
		c6.8735,1.2597,14.6643,2.6879,23.0215,6.7803c30.4372,14.9026,28.5758,43.1559,28.4817,44.3512
		c-0.2091,2.6582-2.4317,4.6761-5.0533,4.6761c-0.1338,0-0.2681-0.0049-0.4039-0.0159c-2.7866-0.2191-4.8694-2.6503-4.6623-5.4354
		c0.0659-0.9822,1.2206-22.687-22.8253-34.4617c-7.1005-3.4759-13.8555-4.7148-20.3886-5.9121
		c-7.3444-1.3467-14.5279-2.6663-21.7921-6.6574c-0.2822,1.952-0.5202,6.007,0.1527,13.9402
		c0.7547,8.8915,6.8507,21.6979,12.7464,34.0821c7.0732,14.858,13.754,28.8925,13.5443,39.7285
		c-0.0461,2.3708-0.2914,5.4542-0.5754,9.0253c-0.7756,9.7507-1.8642,23.4614-0.3434,37.8163
		c2.4238-6.8671,6.5231-13.2341,12.1092-18.1837c5.8424-5.1017,13.2525-8.5093,21.1934-9.3481
		c3.9665-0.3416,8.0826-0.0909,12.0078,1.1522c1.9796,0.5555,3.8511,1.452,5.6978,2.457c1.7737,1.0955,3.4865,2.3143,4.9666,3.7742
		c3.0223,2.8531,5.4446,6.3268,7.0229,10.1893c1.5857,3.845,2.5431,8.0588,2.3287,12.3853
		c-0.0735,1.0784-0.134,2.1603-0.3592,3.2319c-0.1024,0.5356-0.1709,1.0786-0.3087,1.6085l-0.4549,1.5833l-0.2408,0.7885
		l-0.3157,0.7646l-0.6447,1.5261c-0.4917,0.9734-1.0044,1.941-1.5891,2.8513c-2.3682,3.6216-5.5041,6.5744-9.0838,8.8261
		c-3.5826,2.2298-7.7361,3.7035-12.1413,3.9282c-1.0868,0.1086-2.2149-0.035-3.3148-0.1069
		c-0.5504-0.0219-1.1043-0.1943-1.652-0.2906c-0.5457-0.1334-1.0996-0.194-1.6286-0.398c-1.0537-0.4044-2.1395-0.7009-3.0916-1.3121
		l-1.4426-0.843c-0.4632-0.3476-0.9355-0.6656-1.3623-1.0643c-1.7513-1.5073-3.1134-3.5181-3.8014-5.6448
		c-0.6949-2.1306-0.85-4.3077-0.6074-6.3604c0.267-2.0535,0.8532-4.0123,1.822-5.7822c0.4897-0.8803,1.0522-1.7235,1.7643-2.4651
		c0.7214-0.707,1.5941-1.4228,2.7275-1.5402c0.1645-0.0167,0.3302,0.0686,0.407,0.2258c0.0985,0.2017,0.0149,0.4449-0.1868,0.5435
		l-0.0507,0.0248c-0.6823,0.3331-1.184,1.0121-1.5659,1.7428c-0.3908,0.7313-0.6673,1.5421-0.8665,2.3629
		c-0.3968,1.6442-0.5272,3.3515-0.3426,4.9712c0.1438,1.6183,0.5917,3.1503,1.3197,4.4127
		c0.7324,1.2592,1.6722,2.2791,2.8606,2.9808c0.2789,0.1934,0.6108,0.3289,0.9099,0.4937l1.0298,0.3766
		c0.6493,0.3201,1.3901,0.3913,2.0726,0.5809c0.3413,0.0991,0.7222,0.0674,1.0758,0.1136c0.3634,0.0101,0.7063,0.1031,1.0785,0.0571
		c0.7363-0.0663,1.452-0.0267,2.1888-0.2141c2.9129-0.4919,5.83-1.7363,8.3522-3.5868c0.6234-0.4721,1.2815-0.8922,1.848-1.4363
		l0.883-0.7679l0.8108-0.8397c1.105-1.096,2.0453-2.321,2.8915-3.5795c0.3856-0.6459,0.7713-1.2896,1.127-1.9421l0.4519-1.0035
		l0.2328-0.5001l0.1689-0.5276c0.1107-0.3524,0.2354-0.7008,0.3613-1.0502c0.118-0.352,0.174-0.7244,0.2684-1.0857
		c0.2091-0.7198,0.2794-1.4743,0.3812-2.2257c0.7374-6.0427-1.5136-12.7582-5.914-17.3967
		c-4.3087-4.7416-10.9925-6.9054-17.7029-6.6037c-6.7394,0.2913-13.5052,2.8436-19.0011,7.0961
		c-6.6094,5.0551-11.4961,12.3936-13.9787,20.5477c3.2237,20.8957,12.6701,42.2568,37.1575,54.0898
		c-1.3242-4.9988-2.2781-10.0664-2.7063-15.1334c-0.5509-6.5186,9.6032-6.4606,10.1492,0c0.0195,0.2299,0.0442,0.4594,0.0716,0.6884
		c0.0318,0.265,0.0473,0.4135,0.0543,0.4974c0.0199,0.1116,0.0429,0.2426,0.0737,0.4218c0.1951,1.1379,0.3765,2.2766,0.5963,3.4103
		c0.64,3.3021,1.4443,6.5725,2.3717,9.8052c2.9035,10.1212,6.5782,18.7861,11.7348,27.9455
		c10.2854,18.2694,24.7312,33.4996,41.7065,45.3298c2.6935-0.6241,24.2095-6.2234,33.318-27.332
		c-0.1625-0.1874-0.3267-0.37-0.4889-0.5584c-0.9138-1.0619-0.7939-2.664,0.2683-3.5782c1.0626-0.9139,2.6646-0.7897,3.5786,0.2686
		c0.1059,0.1231,0.2131,0.2422,0.3191,0.3648c4.2011-0.0676,33.7109-1.2569,44.4206-20.9562
		c0.0737-0.1353,0.1634-0.2591,0.2588-0.3772c0.0016-1.1025,0.7149-2.1177,1.8277-2.4363c0.7862-0.2252,1.5919-0.0536,2.2032,0.3958
		c0.4364,0.3209,0.774,0.7837,0.9347,1.3448c0.013,0.0455,0.1409,0.4819,0.381,1.2443c6.2937,3.0967,26.1689,10.3004,45.9276-9.6898
		c0.0519-0.0526,0.111-0.0934,0.1664-0.1406c0.0503-0.043,0.0976-0.089,0.1515-0.1281c0.0851-0.0615,0.1754-0.1117,0.266-0.1616
		c0.0468-0.0258,0.0898-0.0566,0.1385-0.0797c0.141-0.0665,0.287-0.1199,0.4364-0.1591c0.0388-0.0103,0.0803-0.0127,0.1199-0.0211
		c0.1172-0.0247,0.2345-0.045,0.354-0.0532c0.0166-0.0012,0.0318-0.0065,0.0487-0.0073c0.06-0.0029,0.1175,0.0056,0.1767,0.0069
		c0.0699,0.0013,0.1394,0.0007,0.2091,0.008c0.0833,0.0086,0.1634,0.0256,0.2441,0.0421c0.0614,0.0125,0.1227,0.0225,0.1831,0.0396
		c0.0858,0.0243,0.1675,0.0569,0.2494,0.0898c0.0534,0.0214,0.1074,0.0393,0.1597,0.0645c0.088,0.0424,0.1702,0.0939,0.2523,0.1459
		c0.0368,0.0233,0.0762,0.0395,0.1121,0.0648c0.3217,0.2267,32.3963,22.5265,49.286,7.283
		c0.0289-0.0261,0.0638-0.0427,0.0937-0.0673c0.0864-0.0709,0.1756-0.1355,0.2701-0.1942c0.0584-0.0363,0.1161-0.0712,0.1769-0.1024
		c0.0976-0.0503,0.1983-0.0912,0.3019-0.1287c0.062-0.0225,0.122-0.0468,0.1856-0.0644c0.1157-0.0319,0.2342-0.0505,0.354-0.0657
		c0.0545-0.007,0.1072-0.0196,0.1622-0.0231c0.1613-0.0099,0.3246-0.0038,0.4881,0.0181c0.0139,0.0019,0.0276-0.0006,0.0414,0.0015
		c0.0013,0.0002,0.0022,0.0008,0.0036,0.0009c0.17,0.0258,0.3398,0.0682,0.5073,0.1306c0.0045,0.0017,0.0077,0.0049,0.0121,0.0065
		c0.2017,0.0762,0.389,0.1807,0.5641,0.3044c0.0132,0.0093,0.0303,0.0139,0.0435,0.0235c0.116,0.0853,0.2224,0.1804,0.3206,0.2825
		c0.0144,0.0146,0.0255,0.032,0.0394,0.0471c0.1011,0.1104,0.1903,0.2292,0.27,0.3544c0.012,0.0189,0.0289,0.0338,0.0404,0.053
		c0.7452,1.2368,18.5735,30.2001,43.5678,20.0382c0.0154-0.0062,0.0317-0.0074,0.0472-0.0134
		c0.1243-0.0476,0.2521-0.0804,0.3818-0.1082c0.0428-0.009,0.0844-0.025,0.1276-0.0319c0.1719-0.0273,0.3464-0.0375,0.5209-0.0292
		c0.0372,0.0018,0.0734,0.0118,0.1103,0.0153c0.1371,0.0125,0.2735,0.0317,0.4082,0.0668c0.0586,0.0154,0.1143,0.04,0.1719,0.0597
		c0.1092,0.037,0.2169,0.0765,0.3218,0.1292c0.0212,0.0106,0.0444,0.015,0.0654,0.0263c0.1063,0.0572,0.2073,0.1212,0.3033,0.1916
		c0.0016,0.0012,0.0035,0.0027,0.0052,0.0038c0.015,0.011,0.0258,0.0253,0.0404,0.0366c0.1144,0.0884,0.2221,0.1841,0.3191,0.2898
		c0.0469,0.0508,0.0836,0.1075,0.1257,0.1613c0.0565,0.0726,0.1144,0.1436,0.1629,0.2219c0.0399,0.0647,0.0701,0.1331,0.1038,0.2006
		c0.0378,0.0756,0.0769,0.1498,0.1072,0.2293c0.0273,0.0726,0.0458,0.147,0.0665,0.2216c0.0166,0.0593,0.0408,0.1157,0.0532,0.1766
		c0.168,0.8123,4.0797,18.6282,22.5295,24.8859c9.6537-7.7292,18.3829-16.6251,25.8414-26.7261
		c7.554-10.2303,14.0032-21.5888,18.0436-33.3932c1.4591-4.2628,2.6547-8.6353,3.341-13.093
		c0.0189-0.1982,0.1634-1.3388,0.2076-1.9458c0.0504-0.694,0.0888-1.39,0.0908-2.0861c0.002-0.6971-0.0357-1.3856-0.0786-2.0807
		c-0.0006-0.0102-0.0006-0.0153-0.0012-0.0248c-0.0273-0.0972-0.063-0.2358-0.1097-0.4319
		c-1.512-6.3607,8.2769-9.0497,9.7866-2.6981c0.3705,1.5587,0.5261,3.189,0.5523,4.7901c0.0969,5.9109-1.2075,11.9223-3.08,17.6945
		c27.2141-13.6899,35.349-39.3857,37.1609-62.6278c-2.6703-7.1301-7.2029-13.487-13.119-18.0119
		c-5.4958-4.2524-12.2615-6.8047-19.001-7.0961c-6.7104-0.3017-13.3941,1.8621-17.7028,6.6037
		c-4.4004,4.6385-6.6515,11.3541-5.9141,17.3967c0.1019,0.7514,0.1721,1.5059,0.3812,2.2257
		c0.0944,0.3613,0.1504,0.7337,0.2685,1.0857c0.1259,0.3494,0.2505,0.6978,0.3613,1.0502l0.1688,0.5276l0.2329,0.5001l0.452,1.0035
		c0.3557,0.6525,0.7413,1.2961,1.1269,1.9421c0.8462,1.2585,1.7865,2.4835,2.8916,3.5795l0.8108,0.8397l0.8831,0.7679
		c0.5665,0.5442,1.2245,0.9642,1.848,1.4363c2.5222,1.8505,5.4393,3.0949,8.3523,3.5868c0.7368,0.1874,1.4525,0.1477,2.1888,0.2141
		c0.3723,0.0461,0.7152-0.047,1.0785-0.0571c0.3536-0.0462,0.7344-0.0145,1.0759-0.1136c0.6824-0.1896,1.4233-0.2609,2.0724-0.5809
		l1.0299-0.3766c0.2992-0.1648,0.631-0.3002,0.91-0.4937c1.1884-0.7017,2.1282-1.7216,2.8605-2.9808
		c0.728-1.2624,1.1759-2.7944,1.3197-4.4127c0.1846-1.6197,0.0541-3.327-0.3425-4.9712c-0.1992-0.8207-0.4758-1.6315-0.8665-2.3629
		c-0.3821-0.7307-0.8836-1.4097-1.566-1.7428l-0.0508-0.0248c-0.2017-0.0985-0.2852-0.3417-0.1868-0.5435
		c0.0768-0.1572,0.2426-0.2425,0.4071-0.2258c1.1334,0.1174,2.006,0.8332,2.7275,1.5402c0.712,0.7416,1.2744,1.5848,1.7643,2.4651
		c0.9689,1.7699,1.5549,3.7287,1.822,5.7822c0.2426,2.0527,0.0875,4.2299-0.6074,6.3604c-0.688,2.1268-2.05,4.1376-3.8014,5.6448
		c-0.4266,0.3987-0.899,0.7167-1.3623,1.0643l-1.4426,0.843c-0.952,0.6111-2.0378,0.9077-3.0916,1.3121
		c-0.5289,0.204-1.0828,0.2646-1.6284,0.398c-0.5477,0.0963-1.1016,0.2687-1.652,0.2906c-1.0999,0.0719-2.228,0.2155-3.3148,0.1069
		c-4.4052-0.2247-8.5587-1.6984-12.1414-3.9282c-3.5797-2.2517-6.7157-5.2045-9.0837-8.8261
		c-0.5848-0.9103-1.0974-1.8779-1.5892-2.8513l-0.6447-1.5261l-0.3157-0.7646l-0.2407-0.7885l-0.455-1.5833
		c-0.138-0.5299-0.2064-1.0729-0.3087-1.6085c-0.2252-1.0716-0.2857-2.1535-0.3593-3.2319
		c-0.2143-4.3265,0.743-8.5402,2.3287-12.3853c1.5784-3.8625,4.0006-7.3362,7.0229-10.1893c1.48-1.4599,3.1929-2.6787,4.9666-3.7742
		c1.8467-1.005,3.7182-1.9014,5.6978-2.457c3.9252-1.2432,8.0413-1.4938,12.0078-1.1522c7.941,0.8387,15.351,4.2463,21.1934,9.3481
		c4.7315,4.1924,8.3883,9.4059,10.8757,15.0735c0.3774-10.7415-0.4077-20.65-1.0076-28.1896
		c-0.2834-3.571-0.5292-6.6555-0.5748-9.0262c-0.2101-10.836,6.4711-24.8705,13.5448-39.7295
		c5.8953-12.3842,11.9917-25.1896,12.746-34.0811c0.8028-9.4643,0.3092-13.4219-0.0099-14.8561
		c-0.0803-0.0604-0.1493-0.1351-0.2258-0.2003c-4.4891,1.4575-8.9826,2.283-13.538,3.1182
		c-6.5325,1.1973-13.2871,2.4362-20.3885,5.9121c-24.0815,11.7925-22.8872,33.5458-22.8248,34.4666
		c0.1902,2.7851-1.9059,5.2144-4.6901,5.4185c-0.1268,0.0099-0.2537,0.0149-0.3796,0.0149c-2.6226,0-4.8407-2.0071-5.0499-4.6633
		c-0.0941-1.1953-1.9545-29.4485,28.4812-44.3512c8.3582-4.0924,16.1485-5.5206,23.022-6.7803
		c17.2169-3.1567,30.8152-5.6495,49.0838-47.4911C719.0533,482.7115,722.1823,474.3602,721.5341,469.5958z M665.8945,418.3516
		l0.1606,1.0516c0.5897,3.9298-2.118,7.593-6.0479,8.1828c-0.3618,0.0545-0.7216,0.0803-1.0764,0.0803
		c-3.5016,0-6.5712-2.5601-7.1064-6.1282l-0.1487-0.9703c-0.6115-3.9259,2.0745-7.605,6.0013-8.2175
		C661.599,411.7378,665.282,414.4248,665.8945,418.3516z M665.9342,452.4436c-0.0793,0.3786-0.1606,0.7562-0.2458,1.1319
		c-0.7602,3.3372-3.7256,5.5999-7.0093,5.5999c-0.5293,0-1.0665-0.0585-1.6037-0.1804c-1.5303-0.3484-2.8289-1.1652-3.7928-2.2593
		c-1.6223-1.1665-2.7563-2.9948-2.9657-5.1395l-0.0347-0.3132c-0.4985-3.9427,2.2935-7.5425,6.2352-8.041
		c1.5598-0.1954,3.0606,0.1278,4.3411,0.826C664.4552,445.0898,666.7061,448.7261,665.9342,452.4436z M648.4952,382.0346
		c3.7455-1.3301,7.8577,0.6284,9.1868,4.3738l0.3478,0.9822c1.3192,3.7484-0.6512,7.8557-4.3996,9.1749
		c-0.7889,0.2775-1.5958,0.4093-2.3876,0.4093c-2.9684,0-5.7466-1.8495-6.7873-4.809l-0.334-0.9445
		C642.7922,387.4769,644.7498,383.3637,648.4952,382.0346z M645.9252,482.1469c-0.3717,0.2012-0.7463,0.3965-1.123,0.5838
		c-0.0571,0.0285-0.1161,0.0475-0.1736,0.0743c-0.0496,0.0266-0.0986,0.0539-0.1484,0.0803
		c-1.0734,0.5679-2.2261,0.8375-3.361,0.8375c-2.5799,0-5.0736-1.3915-6.3651-3.8297c-1.8593-3.5126-0.5193-7.8666,2.9922-9.726
		l0.334-0.1804c0.2213-0.1223,0.4462-0.2311,0.674-0.3279c0.1066-0.0557,0.2141-0.1093,0.3201-0.1667
		c3.4977-1.8921,7.8616-0.5917,9.7527,2.902C650.7194,475.8888,649.4189,480.2558,645.9252,482.1469z M633.5272,354.1312
		c3.3857-2.0784,7.8181-1.0219,9.8964,2.3638l0.5571,0.9128c2.0576,3.3996,0.9703,7.824-2.4283,9.8816
		c-1.1656,0.7057-2.4511,1.0417-3.7197,1.0417c-2.4342,0-4.809-1.236-6.1619-3.47l-0.5085-0.8335
		C629.0829,360.642,630.1414,356.2106,633.5272,354.1312z M612.4587,330.5155c2.7732-2.8445,7.3314-2.902,10.174-0.1259
		l0.7523,0.7354c2.8326,2.7861,2.8704,7.3423,0.0833,10.175c-1.4084,1.4312-3.2687,2.1488-5.1291,2.1488
		c-1.8217,0-3.6444-0.6869-5.0458-2.0655l-0.7087-0.6938C609.74,337.9143,609.6835,333.3591,612.4587,330.5155z M585.5722,313.8338
		c1.8049-3.5403,6.1371-4.9467,9.6784-3.1429c0.3281,0.1675,0.6552,0.338,0.9822,0.5094c3.5195,1.8465,4.8754,6.1956,3.0298,9.7141
		c-1.2864,2.4521-3.7891,3.8545-6.3779,3.8545c-1.1269,0-2.2697-0.2656-3.3361-0.8246c-0.2775-0.1457-0.5551-0.2904-0.8336-0.4321
		C585.1747,321.7073,583.7684,317.3741,585.5722,313.8338z M605.2608,341.7204c16.5261,14.4678,27.8466,34.3046,34.1356,55.3494
		c4.7523,15.9025,7.9734,35.5605,2.5603,50.0035c-1.6584,6.7984-7.1676,12.746-13.6804,15.7684
		c-8.4494,3.9213-18.1646,3.8964-27.4462,3.109c-22.6459-1.9208-44.9349-7.972-65.4432-17.7668
		c-20.0734-9.5873-39.3194-23.8477-47.6931-44.4569c-6.6489-16.364-5.4707-35.7132,3.1143-51.1497
		c10.6756-19.1954,32.1306-31.3351,54.0526-32.6989C566.7827,318.5146,588.7347,327.2525,605.2608,341.7204z M618.7563,480.9476
		c-0.2864,3.7772-3.4402,6.6515-7.1669,6.6515c-0.1833,0-0.3667-0.0069-0.5521-0.0208l-1.0406-0.0803
		c-3.9615-0.3132-6.9201-3.7772-6.6069-7.7387c0.3123-3.9626,3.7941-6.9062,7.7388-6.6069l0.9971,0.0763
		C616.0882,473.529,619.0566,476.985,618.7563,480.9476z M578.6244,539.3114l-0.8048,0.3409
		c-0.7136-1.6354-7.6585-6.1678-15.0107-10.9659c-13.2356-8.6367-29.7082-19.3866-29.1383-25.0053
		c0.1239-1.2181,0.9783-2.1478,2.5392-2.7633C550.3533,495.3348,570.4485,519.5185,578.6244,539.3114z M542.3777,463.351
		c1.456-3.6969,5.6316-5.5146,9.3315-4.0587l0.9327,0.3667c3.7019,1.446,5.5305,5.6187,4.0845,9.3196
		c-1.1101,2.8416-3.8268,4.579-6.704,4.579c-0.8702,0-1.7563-0.1586-2.6156-0.4946l-0.9703-0.3806
		C542.7394,471.2266,540.9217,467.0489,542.3777,463.351z M577.657,482.4353c-3.8704-0.9009-6.2778-4.7683-5.3759-8.6387
		c0.9009-3.8704,4.7664-6.2758,8.6387-5.3759l0.9763,0.225c3.8734,0.89,6.2907,4.7515,5.4007,8.6238
		c-0.7652,3.3302-3.7286,5.5851-7.0063,5.5851c-0.5332,0-1.0754-0.0595-1.6175-0.1844L577.657,482.4353z M527.699,456.2951
		c-1.342,2.2766-3.7426,3.5443-6.2065,3.5443c-1.2409,0-2.4987-0.3221-3.6454-0.9981c-0.3162-0.1854-0.6304-0.3737-0.9435-0.563
		c-3.4026-2.0536-4.4968-6.4761-2.4442-9.8776c2.0536-3.4026,6.475-4.4978,9.8776-2.4442l0.8147,0.4876
		C528.5762,448.4612,529.7159,452.8718,527.699,456.2951z M501.4499,438.5608c-1.4015,1.3787-3.2242,2.0655-5.0458,2.0655
		c-1.8614,0-3.7207-0.7176-5.1291-2.1488l-0.7453-0.7612c-2.7692-2.8505-2.7028-7.4057,0.1467-10.175
		c2.8515-2.7682,7.4057-2.7028,10.175,0.1467l0.6819,0.6978C504.3202,431.2185,504.2825,435.7747,501.4499,438.5608z
		 M282.1709,576.8751c0.7173,2.7934,1.7751,5.4114,3.2664,7.6382c1.4971,2.2162,3.421,4.0266,5.7374,5.2574
		c4.6278,2.5073,10.7491,2.5395,16.3788,0.7874c5.642-1.7358,11.0258-5.0839,14.7739-9.6646
		c1.8588-2.2869,3.2717-4.9013,3.8862-7.6667c0.6293-2.7596,0.3977-5.6571-0.7232-8.3351c-1.1898-2.7037-2.9075-5.387-5.0907-7.3732
		c-2.1734-2.0247-4.9248-3.3782-7.89-3.6877c-2.9542-0.3403-6.0711,0.318-8.7643,1.807c-2.6667,1.4932-5.0073,3.8317-5.9643,6.759
		l-0.0058,0.0179c-0.1146,0.3506-0.4918,0.5421-0.8424,0.4274c-0.3338-0.1091-0.5226-0.4586-0.441-0.7942
		c0.8483-3.4532,3.2805-6.2674,6.167-8.1922c2.9165-1.9163,6.4521-2.989,10.0581-2.8561c3.6098,0.1204,7.1623,1.5901,9.9419,3.8624
		c1.3965,1.1307,2.6524,2.4207,3.7345,3.8217c1.0699,1.4364,2.0241,2.8237,2.8572,4.4926c1.6576,3.283,2.2702,7.2091,1.675,10.9069
		c-0.5663,3.7122-2.1644,7.1353-4.2462,10.0832c-4.2281,5.8902-10.2082,10.1989-16.9414,12.7747
		c-3.3847,1.2564-7.0074,2.0448-10.7644,2.1342c-3.7438,0.0905-7.6573-0.5698-11.2543-2.2283
		c-3.6037-1.6359-6.7621-4.2825-9.1144-7.3806c-2.35-3.1096-3.9883-6.5921-5.0648-10.1068
		c-1.0736-3.531-1.7445-7.0201-1.9802-10.7668c-0.221-3.7165,0.0956-7.6373,1.2682-11.4345
		c1.1426-3.7969,3.1542-7.3828,5.6724-10.3495c2.5114-2.9879,5.4418-5.4188,8.4509-7.483
		c6.0678-4.0822,12.4319-6.8867,18.6812-9.4567c6.268-2.5315,12.4693-4.8029,18.5153-7.0779
		c3.0198-1.1504,5.9944-2.3007,8.9177-3.4757c2.9032-1.2144,5.765-2.4265,8.5161-3.7466c1.3765-0.6589,2.7183-1.3611,4.0353-2.0706
		c1.3236-0.6887,2.6118-1.4411,3.905-2.2304c2.5532-1.5833,5.0003-3.2842,7.2695-5.1149
		c4.5225-3.6663,8.3536-7.9717,10.5325-12.7744c1.0772-2.395,1.7333-4.8964,1.8238-7.3784
		c0.0638-2.4658-0.3535-4.9435-1.4601-7.0568c-1.0837-2.1132-2.7981-3.809-4.813-4.6745c-1.011-0.4361-2.1093-0.641-3.2559-0.5827
		c-0.2875,0.0069-0.5752,0.0508-0.8683,0.0865c-0.285,0.0576-0.5708,0.1035-0.9619,0.2218
		c-0.7336,0.1931-1.4498,0.4148-2.1743,0.6306c-2.8686,0.9093-5.5352,2.2709-7.7531,4.1913
		c-1.0936,0.9706-2.0555,2.1027-2.787,3.3997c-0.7495,1.2663-1.2746,2.7914-1.4225,4.2286l-0.0116,0.113
		c-0.0376,0.3651-0.364,0.6304-0.729,0.5928c-0.2976-0.0306-0.5292-0.2542-0.584-0.5335c-0.7074-3.6217,0.5014-7.3231,2.6156-10.338
		c2.1272-3.0366,5.1188-5.3026,8.2229-7.0842c0.7822-0.4372,1.5773-0.8581,2.3886-1.2232c0.3712-0.1883,0.8693-0.3869,1.3669-0.5775
		c0.502-0.1685,1.0086-0.3351,1.5333-0.454c2.0877-0.5109,4.3516-0.5412,6.498-0.0717c4.3584,0.8942,7.9823,3.735,10.4303,7.1193
		c2.463,3.419,3.8715,7.487,4.2189,11.5709c0.3621,4.0903-0.2365,8.171-1.5019,11.9056c-1.2415,3.7546-3.1154,7.1778-5.3034,10.2598
		c-2.1838,3.0912-4.7089,5.8378-7.395,8.3084c-2.6697,2.5023-5.5544,4.6672-8.5065,6.6616c-2.9274,1.9888-6.0822,3.8217-9.2301,5.34
		c-3.1502,1.5654-6.3355,2.9301-9.5403,4.1294c-3.1911,1.2244-6.3934,2.3117-9.581,3.3076
		c-6.3636,2.0331-12.6873,3.7367-18.7551,5.725c-6.0508,1.9789-11.9366,4.1795-16.9348,7.2217
		c-4.9984,3.0294-8.9043,6.9019-10.6146,11.8206c-0.8922,2.4483-1.2767,5.1622-1.2438,8.0013
		C281.0272,571.0566,281.4587,574.0875,282.1709,576.8751z M319.6316,500.9179c1.561,0.6155,2.4154,1.5452,2.5383,2.7633
		c0.5709,5.6187-15.9017,16.3675-29.1383,25.0053c-7.3522,4.798-14.2971,9.3305-15.0107,10.9659l-0.8048-0.3409
		C285.393,519.5175,305.4832,495.3348,319.6316,500.9179z M277.8148,477.2695c-0.89-3.8723,1.5273-7.7338,5.4007-8.6238
		l0.9763-0.225c3.8694-0.899,7.7378,1.5065,8.6387,5.3759c0.9019,3.8704-1.5055,7.7378-5.3759,8.6387l-1.0159,0.2349
		c-0.5421,0.1249-1.0843,0.1844-1.6175,0.1844C281.5424,482.8545,278.5799,480.5997,277.8148,477.2695z M312.4697,459.6591
		l0.9327-0.3667c3.6969-1.452,7.8755,0.3618,9.3315,4.0587c1.456,3.6979-0.3618,7.8755-4.0587,9.3315l-0.9703,0.3806
		c-0.8593,0.336-1.7454,0.4946-2.6156,0.4946c-2.8773,0-5.5939-1.7374-6.704-4.579
		C306.9392,465.2778,308.7678,461.1051,312.4697,459.6591z M339.9588,446.4443l0.8147-0.4876
		c3.4026-2.0506,7.824-0.9584,9.8776,2.4442c2.0526,3.4016,0.9584,7.824-2.4441,9.8776c-0.3132,0.1893-0.6274,0.3776-0.9436,0.563
		c-1.1467,0.6759-2.4045,0.9981-3.6454,0.9981c-2.4649,0-4.8645-1.2667-6.2065-3.5443
		C335.3946,452.8718,336.5344,448.4612,339.9588,446.4443z M363.5774,428.3868l0.6819-0.6978
		c2.7682-2.8485,7.3245-2.9139,10.175-0.1467c2.8495,2.7692,2.9159,7.3245,0.1467,10.175l-0.7453,0.7612
		c-1.4084,1.4312-3.2688,2.1488-5.1291,2.1488c-1.8217,0-3.6444-0.6869-5.0458-2.0655
		C360.828,435.7757,360.7904,431.2195,363.5774,428.3868z M379.7696,404.6482c0.118-0.2845,0.2339-0.5689,0.3489-0.8563
		c1.4709-3.691,5.6564-5.4929,9.3484-4.0181c3.691,1.4718,5.4899,5.6574,4.0181,9.3484c-0.1388,0.3489-0.2805,0.6968-0.4242,1.0427
		c-1.1487,2.7682-3.8268,4.4383-6.6485,4.4383c-0.9198,0-1.8534-0.1764-2.7554-0.5511
		C379.9866,412.5287,378.2462,408.3184,379.7696,404.6482z M328.0979,290.8831c-11.2295,1.1775-18.2745-5.3947-19.1814-12.179
		c-0.6383-4.7743,1.8227-10.8717,10.8568-12.3386c17.9276-2.9298,54.3358,20.6532,60.2331,35.7947l0.8098,2.0784l-1.6294-1.5234
		C373.5294,297.4236,348.0682,288.7918,328.0979,290.8831z M368.7819,326.6144c-1.4133,1.8871-3.575,2.8822-5.7644,2.8822
		c-1.5006,0-3.014-0.4678-4.3075-1.4372c-0.2448-0.1833-0.4916-0.3647-0.7384-0.5441c-3.2152-2.3361-3.9279-6.8358-1.5918-10.0501
		c2.3361-3.2152,6.8369-3.9268,10.0501-1.5918c0.3043,0.221,0.6066,0.444,0.9069,0.669
		C370.5173,318.9252,371.1646,323.4339,368.7819,326.6144z M341.5604,310.5521c-0.8137,3.2737-3.7495,5.4612-6.9766,5.4612
		c-0.5748,0-1.1586-0.0694-1.7414-0.2141c-0.3043-0.0753-0.6096-0.1497-0.9138-0.221c-3.8674-0.9148-6.26-4.7911-5.3462-8.6585
		s4.7872-6.255,8.6585-5.3462c0.3578,0.0852,0.7146,0.1715,1.0724,0.2607C340.1699,302.7925,342.5189,306.6956,341.5604,310.5521z
		 M304.1769,314.4879l-0.9495,0.1437c-0.3756,0.0585-0.7483,0.0872-1.117,0.0872c-3.4848,0-6.5464-2.5373-7.1005-6.0885
		c-0.6115-3.9259,2.0744-7.6049,6.0013-8.2175l1.0724-0.1616c3.9318-0.5858,7.5871,2.1399,8.1649,6.0717
		C310.8274,310.2538,308.1087,313.9101,304.1769,314.4879z M315.4009,141.0792c5.5478-0.5318,10.2844,4.0101,15.1976,6.1704
		c8.4283,5.1556,18.3953,8.7204,28.3931,7.1134c4.964-1.0578,9.9058-2.2401,14.8643-3.3365
		c4.1482-0.5925,8.1972,1.547,10.8477,4.6321c7.9805,8.7724,18.5453,15.1995,30.0991,17.9557
		c4.8749,0.8948,9.8756,0.7646,14.7565,1.6193c2.0692,0.6652,3.5381,2.5196,4.1271,4.5683c2.9196,9.5896-0.5937,20.7-8.745,26.629
		c-11.509,8.9516-27.5136,10.1231-41.0822,5.6475c-16.1846-4.6485-30.194-16.1715-47.4769-16.9788
		c-4.9435-0.5123-9.0288,2.8749-13.624,4.0194c-0.3406-3.6443-0.1985-7.3129-0.4649-10.9561
		c-2.8113-11.6996-13.1456-20.9766-12.4992-33.6134c0.5583-4.6677,0.6169-11.2299,5.6077-13.4699L315.4009,141.0792z
		 M376.1855,66.9721c3.7594-0.6024,8.2914,0.7413,8.8579,4.6718c0.4806,9.107-7.3865,17.4963-4.0778,26.7195
		c2.4623,5.4604,7.7351,11.7704,14.8622,10.9669c7.2037-1.9615,15.6472-2.2457,22.0108,1.7968
		c5.5945,4.0834,7.0742,11.3575,5.724,17.6859c-16.4483,1.4388-32.4114-4.6216-46.0721-12.4304
		c-10.715-6.1384-20.4683-17.0783-17.696-29.7806c1.9895-7.6293,5.9417-16.9231,14.843-19.2539
		c0.4917-0.1637,1.013-0.2897,1.55-0.3758L376.1855,66.9721z M451.9574,67.4331c3.6407,2.5678,6.1703,7.5635,4.4291,11.9412
		c-2.2449,3.9944-7.2033,4.8629-11.3522,5.5723c-7.4563,0.8612-13.7537-3.6917-20.5767-5.7118
		c-3.2923-0.8506-5.6645,2.1505-8.0305,3.8885c-4.6305,4.3489-11.0681,5.865-17.1493,6.8812
		c-4.8463,0.8827-7.9509,5.4593-12.4466,7.0446c-2.0691-11.4271,6.1082-24.6592,18.1116-25.8894
		c3.4001-0.1017,7.1135,1.3641,10.1689-0.8382c5.1411-3.0824,10.0223-6.8853,16.0904-7.9742
		c0.9028-0.2682,1.8138-0.4578,2.728-0.5762l-0.0001,0.0001C440.3297,60.9432,446.893,63.6177,451.9574,67.4331z M480.383,85.4746
		c-3.8088-3.058-6.8318-8.3777-4.8432-13.2781c2.277-5.5614,7.859-9.3622,13.5967-10.6454l-0.0001-0.0002
		c8.0105-1.0913,17.3811,4.7664,17.7711,13.3323c0.5994,6.2863-0.3362,13.0098-4.0272,18.2811
		c-4.1165,6.1719-10.954,10.0833-18.0688,11.7609c-5.3682,1.5389-11.111,0.9429-16.4384,2.6543
		c-9.1184,3.1721-16.6307,9.5059-23.8296,15.7353c2.5274-7.5996,8.1165-13.7511,14.2827-18.6581
		c7.5088-5.7893,15.1217-11.452,22.5934-17.2918C482.4032,86.7093,480.7184,85.9781,480.383,85.4746z M549.9343,146.6446
		c7.6603,8.0355,10.5568,20.7747,5.9614,31.0474c-3.5307,7.7883-11.055,12.8344-18.627,16.2181
		c-2.6581,0.8953-5.1902,2.303-7.1011,4.3865c-5.1707,6.3122-10.0082,12.9476-15.6014,18.8936
		c-8.4322,8.175-20.701,9.4742-31.859,9.984c-9.359,0.167-18.4933-4.1549-24.7669-11.014
		c-9.1273-9.2216-14.3008-21.8739-15.4944-34.6876c-0.0576-1.9411,0.2132-3.8846,0.731-5.7522
		c12.2261,6.115,25.7543,10.9901,39.6436,9.8061c10.676-0.6453,20.7233-6.329,27.3225-14.6496
		c4.937-6.4413,9.2149-13.3515,13.8203-20.0258c2.6362-3.5499,5.4056-7.5611,9.7126-9.1879
		c0.7255-0.2146,1.4604-0.3644,2.1989-0.4546v0.0004C541.0434,140.578,546.3876,142.8872,549.9343,146.6446z M563.0269,300.2513
		l1.0724,0.1616c3.9268,0.6125,6.6128,4.2916,6.0013,8.2175c-0.5541,3.5512-3.6157,6.0885-7.1005,6.0885
		c-0.3687,0-0.7414-0.0287-1.117-0.0872l-0.9495-0.1437c-3.9318-0.5778-6.6505-4.2341-6.0717-8.1649
		C555.4388,302.3911,559.0882,299.6675,563.0269,300.2513z M533.2137,289.9197c-19.9713-2.0923-45.4315,6.5405-51.0889,11.8311
		l-1.6294,1.5233l0.8098-2.0784c5.8972-15.1415,42.3134-38.7166,60.2331-35.7947c9.0342,1.4679,11.4951,7.5653,10.8569,12.3406
		C551.4891,284.526,544.4601,291.0972,533.2137,289.9197z M533.1819,315.5782c-0.3043,0.0714-0.6096,0.1457-0.9138,0.221
		c-0.5828,0.1447-1.1666,0.2141-1.7414,0.2141c-3.2272,0-6.1629-2.1874-6.9766-5.4612c-0.9584-3.8565,1.3906-7.7596,5.2471-8.718
		c0.3578-0.0892,0.7146-0.1754,1.0724-0.2607c3.8684-0.9089,7.7437,1.4788,8.6586,5.3462
		C539.442,310.787,537.0494,314.6633,533.1819,315.5782z M507.139,327.5154c-0.2468,0.1794-0.4936,0.3608-0.7384,0.5441
		c-1.2934,0.9693-2.8069,1.4372-4.3075,1.4372c-2.1894,0-4.3511-0.9951-5.7644-2.8822c-2.3827-3.1805-1.7355-7.6892,1.4451-10.0719
		c0.3003-0.225,0.6026-0.448,0.9069-0.669c3.2152-2.3351,7.714-1.6225,10.0501,1.5918
		C511.0668,320.6795,510.3542,325.1793,507.139,327.5154z M397.3528,432.542c0.531-1.4743,1.0709-2.9412,1.6492-4.3917
		l0.8493-2.1802l0.7334-2.2121l1.5161-4.3967c0.5377-1.4543,0.9127-2.9492,1.377-4.419c1.896-5.8725,3.3954-11.7996,4.8952-17.7402
		c1.4441-5.9539,2.3409-12.0048,2.7923-18.0942c0.3211-6.0919,0.131-12.2093-0.591-18.2916
		c-0.685-6.0861-1.9294-12.1396-3.7524-18.0741c-1.786-5.944-4.15-11.7718-7.0515-17.4077
		c-1.4777-2.8057-3.0656-5.5744-4.8225-8.2647c-1.7455-2.6899-3.6412-5.3371-5.7764-7.7883l-0.0146-0.0167
		c-0.1355-0.1556-0.1008-0.3776,0.0775-0.4958c0.1692-0.1121,0.4078-0.0896,0.5475,0.0456
		c4.8344,4.7055,8.7525,10.018,12.228,15.5464c3.4318,5.549,6.351,11.3589,8.6984,17.3581
		c2.3149,6.0078,4.0536,12.1982,5.2188,18.4806c1.1216,6.2877,1.6952,12.6585,1.7316,19.0416
		c-0.0634,3.1859-0.0333,6.3891-0.3511,9.5714c-0.1577,3.1984-0.6056,6.3693-1.0084,9.5545
		c-1.0487,6.3274-2.6133,12.6151-5.0535,18.6358c-2.2806,6.0675-5.3268,11.8788-8.6501,17.5137
		c-1.6713,2.8146-3.6047,5.5109-5.4448,8.2255c-2.0191,2.6357-4.0756,5.2394-6.2669,7.7526
		c-0.1371,0.1573-0.3944,0.1878-0.5747,0.0682c-0.1419-0.0941-0.1938-0.2533-0.1426-0.3934l0.0064-0.017
		c1.1107-3.0194,2.4185-5.9216,3.6507-8.8405L397.3528,432.542z M392.0735,383.6134c-0.114,0.0049-0.228,0.0079-0.341,0.0079
		c-3.8198,0-7.0013-3.0051-7.1817-6.8606c-0.0139-0.3053-0.0297-0.6095-0.0486-0.9148c-0.2428-3.9665,2.7762-7.379,6.7417-7.6218
		c3.9705-0.2299,7.378,2.7762,7.6218,6.7417c0.0228,0.3756,0.0426,0.7503,0.0605,1.1249
		C399.1105,380.0602,396.043,383.4281,392.0735,383.6134z M383.0056,286.3041c-15.196-10.287-34.1078-23.0904-33.3347-29.6012
		c0.1675-1.4114,1.1775-2.4738,3.0011-3.1577c16.5331-6.2005,39.3817,22.2638,48.4842,45.4038l-0.9406,0.3806
		C399.4197,297.4167,391.4471,292.019,383.0056,286.3041z M394.8441,247.1034c4.9546-9.1009,25.0795-16.5814,34.8927,0
		c9.8141-16.5814,29.9389-9.1009,34.8936,0c15.2827,26.7667-34.8936,62.0947-34.8936,62.0947S379.5605,273.8701,394.8441,247.1034z
		 M508.6396,252.5808c1.8247,0.6839,2.8336,1.7464,3.0011,3.1577c0.7731,6.5117-18.1387,19.3152-33.3357,29.6021
		c-8.4405,5.7139-16.4131,11.1116-17.209,13.0245l-0.9406-0.3806C469.2569,274.8466,492.1075,246.3783,508.6396,252.5808z
		 M446.6646,360.1997c1.1652-6.2823,2.9039-12.4728,5.2188-18.4806c2.3474-5.9993,5.2665-11.8091,8.6984-17.3581
		c3.4755-5.5284,7.3936-10.8409,12.2281-15.5464c0.1495-0.1455,0.4059-0.1578,0.5728-0.0273
		c0.1582,0.1237,0.179,0.3312,0.0533,0.4764l-0.0155,0.0178c-2.1353,2.4511-4.0309,5.0984-5.7765,7.7883
		c-1.7569,2.6903-3.3448,5.459-4.8225,8.2647c-2.9015,5.636-5.2655,11.4637-7.0515,17.4077
		c-1.8231,5.9345-3.0674,11.988-3.7524,18.0741c-0.7219,6.0823-0.9121,12.1996-0.5909,18.2916
		c0.4513,6.0894,1.3482,12.1403,2.7923,18.0942c1.4998,5.9406,2.999,11.8677,4.8952,17.7402
		c0.4643,1.4697,0.8394,2.9647,1.377,4.419l1.5161,4.3967l0.7334,2.2121l0.8493,2.1802c0.5783,1.4505,1.1182,2.9174,1.6492,4.3917
		l3.5288,8.7701c1.2321,2.9189,2.5399,5.8211,3.6506,8.8405l0.0061,0.0164c0.0692,0.1881-0.0496,0.3895-0.2651,0.4499
		c-0.1698,0.0475-0.3494-0.0071-0.4517-0.1241c-2.1915-2.5132-4.2479-5.1169-6.2669-7.7526
		c-1.84-2.7145-3.7735-5.4109-5.4448-8.2255c-3.3232-5.6349-6.3695-11.4462-8.6501-17.5137
		c-2.4403-6.0207-4.0048-12.3084-5.0536-18.6358c-0.4028-3.1852-0.8506-6.3561-1.0083-9.5545
		c-0.3178-3.1823-0.2877-6.3855-0.3511-9.5714C444.9693,372.8582,445.5429,366.4874,446.6646,360.1997z M466.1844,376.0917
		c0.0179-0.3746,0.0377-0.7493,0.0605-1.1249c0.2428-3.9665,3.6504-6.9845,7.6218-6.7417c3.9655,0.2428,6.9845,3.6553,6.7417,7.6218
		c-0.0188,0.3053-0.0347,0.6096-0.0486,0.9148c-0.1804,3.8555-3.3629,6.8606-7.1818,6.8606c-0.114,0-0.227-0.003-0.3409-0.0079
		C469.0676,383.4291,466.0001,380.0612,466.1844,376.0917z M478.188,352.4443c-3.5175-1.8484-4.8704-6.1985-3.0219-9.7161
		c0.1179-0.224,0.2379-0.447,0.3588-0.67l0.1953-0.3578c1.9188-3.4799,6.2947-4.7455,9.7745-2.8267
		c3.4799,1.9189,4.7455,6.2947,2.8267,9.7746l-0.4173,0.7741c-1.2875,2.4491-3.7881,3.8495-6.3749,3.8495
		C480.4002,353.2719,479.2564,353.0063,478.188,352.4443z M426.1406,142.3359c9.6304-8.4715,19.5786-20.5512,33.8408-19.8388
		c6.6778,1.2528,13.6416,2.5935,20.2607,0.2438c5.5907-1.5847,10.7694-4.5538,16.5982-5.2829
		c0.5674-0.1267,1.2039-0.1973,1.8635-0.2026l-0.0001,0.0003c2.8582-0.023,6.1494,1.1825,6.1215,4.3994
		c0.6093,5.5101-4.0267,10.1271-9.0384,11.5523c-6.3786,2.4653-9.9475,8.7751-13.442,14.2616
		c-5.3724,9.032-18.0768,11.0487-27.1926,7.0302C445.3999,150.6611,437.0544,142.8552,426.1406,142.3359z M433.3816,92.4643
		c3.1696,4.758-2.239,9.1561-5.0333,12.551c-5.2119,2.7465-13.2073,4.4804-18.0097,0.0134
		c-4.5484-7.7381,4.5399-15.5901,11.2147-18.0939c0.6001-0.2455,1.2041-0.4121,1.8058-0.5067v0.0006
		C427.5714,85.7658,431.6638,88.6192,433.3816,92.4643z M454.0783,85.4246l0.0004,0.0003c0,0.0001-0.0001,0.0002-0.0002,0.0003
		c2.9446,9.1887,0.8261,20.5244-6.8735,26.9092c-6.0829,4.9659-12.4891,10.2572-15.5751,17.6081
		c-0.5576-6.7101-3.0495-13.9901,0.6011-20.2862c2.5044-5.7222,8.7376-7.9816,13.2618-11.7082
		c3.4965-3.7088,5.6492-8.4063,8.5857-12.5228C454.0785,85.4249,454.0785,85.4248,454.0783,85.4246z M360.3131,118.9818
		c0.4191-0.0769,0.8374-0.1452,1.2555-0.2047l-0.0073-0.004c12.9594-1.8434,25.4261,4.5694,36.8865,9.8872
		c14.9671,7.8407,30.5209,15.9334,41.7534,28.8963c0.449,0.4896,1.3607,1.5804-0.3224,1.2379
		c-11.1443-1.4461-22.3897,1.3705-33.5357-0.1402c-3.2804-0.556-6.6168-1.5231-9.2827-3.59
		c-4.3687-4.4924-7.19-10.415-12.0878-14.3947c-5.2524-3.5892-11.7768-0.7848-17.4113,0.213
		c-5.3454,0.8341-11.178,1.3505-16.2151-1.0631c-4.7747-2.3422-6.3921-9.2454-3.0009-13.3793
		C351.4261,122.8087,355.7245,120.2041,360.3131,118.9818z M379.6159,338.8737c3.4799-1.9188,7.8567-0.6531,9.7745,2.8267
		l0.5531,1.0278c1.8484,3.5175,0.4955,7.8676-3.022,9.7161c-1.0674,0.561-2.2132,0.8276-3.3411,0.8276
		c-2.5879,0-5.0875-1.3995-6.375-3.8495l-0.4163-0.7741C374.8704,345.1684,376.1361,340.7926,379.6159,338.8737z M387.0564,504.814
		c5.8437-14.081,41.8902-70.6528,42.253-71.2227l0.4282-0.671l0.4282,0.671c0.3628,0.5699,36.4092,57.1418,42.253,71.2227
		c4.1231,9.9371,10.1671,36.6719,1.2686,51.3853c-3.575,5.9111-9.1561,9.2473-16.5896,9.9153
		c-1.4034,0.1259-2.7603,0.1893-4.0686,0.1893c-7.042,0-12.6875-1.8237-16.8215-5.4423c-3.9992-3.5007-5.6425-7.8538-6.3165-10.6834
		c-0.7632,2.8406-2.5532,7.2263-6.6931,10.736c-4.9983,4.2361-12.0085,5.9835-20.8197,5.2004
		c-7.4315-0.662-13.0126-3.9933-16.5886-9.9004C376.8854,541.5018,382.9313,514.7561,387.0564,504.814z M472.0499,410.1649
		c-0.1437-0.3459-0.2855-0.6938-0.4242-1.0427c-1.4718-3.6909,0.3271-7.8765,4.0181-9.3484
		c3.691-1.4738,7.8765,0.3271,9.3484,4.0181c0.115,0.2874,0.2309,0.5719,0.3489,0.8563c1.5234,3.6702-0.2171,7.8805-3.8872,9.4039
		c-0.9019,0.3737-1.8365,0.5511-2.7553,0.5511C475.8767,414.6032,473.1996,412.9331,472.0499,410.1649z M607.2721,160.6602
		c-5.4168,4.8656-11.0833,9.4906-16.6536,14.1965c-5.0576,3.9561-11.4362,7.2847-18.0502,6.1513
		c-0.8156-0.2059-1.6408-0.443-2.4617-0.7167l-0.0002-0.0002c-3.5576-1.1855-7.036-3.0539-9.3169-6.0136
		c0.671-4.2404,3.2555-8.3344,2.8781-12.8212c-0.2862-5.4028-1.9072-11.2012-6.0001-14.965
		c-1.6087-1.7077-5.1712-2.3466-5.3665-5.0048c7.7375-3.173,16.6942-2.9394,24.419,0.1275
		c6.1519,3.3419,11.7821,7.5433,17.433,11.6501C598.5134,155.748,602.9061,158.1823,607.2721,160.6602z M545.4534,91.1583
		l0.0001-0.0003c0.8376-0.4218,1.6853-0.8054,2.5278-1.1538c6.9151-2.2507,14.2762,0.3202,20.3189,3.7709
		c6.7102,4.1745,13.5105,8.2471,20.081,12.6169c-4.2939,3.3407-8.6235,6.6387-12.9108,9.9846
		c-5.417,5.2886-10.797,10.6752-16.8707,15.2219c-7.804,4.4981-17.3719,6.1506-26.1661,3.9592
		c-0.2065-2.881,3.5137-4.1239,4.9715-6.207c3.7998-4.6768,4.6306-11.1484,4.0917-16.987
		c-0.2975-4.8705-3.7098-8.8561-5.0932-13.2983C538.3862,95.5345,541.8239,92.9864,545.4534,91.1583z M498.333,38.3575
		c0.5521-0.0471,1.1073-0.0829,1.6641-0.1073l-0.0015-0.0006c8.3514-0.3646,17.1142,1.87,23.2683,7.7555
		c6.2867,6.1722,7.9912,15.9204,5.8865,24.2572c-0.9904,5.2716-4.2076,10.1764-3.8535,15.6241
		c2.4384,9.3485,8.6283,17.3347,10.2431,26.9627c1.5269,6.0641-0.2438,12.7723-4.4253,17.3869
		c-5.4853,6.3089-13.2134,10.318-21.2252,12.4026c-6.3792,1.5718-12.2331,5.4553-15.7352,11.0718
		c-3.0606,5.1462-5.9192,10.4128-8.8693,15.6211c-4.8282,6.2266-13.4946,8.6249-21.0665,7.5919
		c-6.8709-2.1059-12.9081-7.5153-15.6072-14.1916c4.4219,0.193,8.8329,0.5746,13.2399,0.961
		c7.6656,1.2953,15.1201-2.886,20.1573-8.3872c4.8669-5.7898,9.2943-12,14.7425-17.2726
		c7.6108-5.5596,14.2242-13.4844,16.0419-22.9357c1.6202-8.0185-6.2407-13.809-6.079-21.5927
		c0.4793-4.6586,2.8635-8.7991,4.9513-12.8935c3.1248-6.6931,3.3325-15.6946-2.4051-21.0636
		c-4.3589-4.2607-11.0811-4.0511-16.6217-2.8374c-9.2436,1.4816-17.7159,6.8431-27.0958,7.0276
		C473.2145,52.1904,483.7141,40.1125,498.333,38.3575z M346.954,58.9264c2.6118-7.9497,8.9867-15.8935,17.9804-16.1729
		c6.4751-1.0684,11.3466,6.1052,17.8164,4.2274c4.6099-2.79,5.9668-9.4971,11.9078-10.536l0.001,0.0002l4.4527-0.6312
		c4.1624,0.0559,7.9056,2.0441,11.2043,4.4195c2.2858,1.2547,5.1036,3.2167,7.7881,1.8732
		c3.7815-2.3119,6.1824-6.3606,10.1455-8.4387c5.3188-2.8814,12.0595-1.8483,16.9573,1.4184
		c9.6412,6.6712,15.5785,18.2478,15.2009,29.9995c-3.3918-1.9938-5.4672-5.6445-8.73-7.8558
		c-7.4842-5.3703-17.4526-5.1891-26.0937-3.4989c-7.7733,1.8821-14.5518,6.4707-22.2838,8.465
		c-5.3611,1.3594-11.082,0.5268-16.0464-1.8c-3.6194-1.5752-7.551-3.5554-11.5908-2.2327
		c-12.6382,2.7567-22.454,13.8783-25.7806,26.0802c-0.8541,3.9039-1.4631,7.8703-2.6018,11.7105
		C342.8838,84.1888,342.1413,70.7533,346.954,58.9264z M298.9037,106.4515c2.1233-7.3967,10.4997-9.9077,14.1536-16.1903
		c0.3446-3.9381-2.5108-7.2446-2.7575-11.1242c-0.8762-8.321,3.3734-18.3202,12.0522-20.5922
		c0.509-0.2105,1.0133-0.3424,1.5102-0.4061h0.0001c3.4782-0.446,6.5976,2.4535,8.4874,5.1816
		c1.6484,4.9173-1.2994,9.8125-1.3433,14.7616c-0.5888,5.1232,2.4176,9.8039,5.5653,13.555
		c6.0185,6.7747,13.6588,11.8244,21.368,16.4637c-6.4832,2.4586-13.0953,5.7551-17.2458,11.5244
		c-4.9951,6.734-2.5977,15.3512-3.5804,23.0352c-11.1777-2.7495-20.9755-9.5629-29.5066-17.0767
		C302.4803,120.7747,296.6516,114.033,298.9037,106.4515z M256.4435,106.5339c-2.1561-2.0839-5.3191-2.5037-7.7429-4.1444
		c6.1567-4.3892,13.0435-7.805,19.9793-10.8305c9.2084-4.0776,20.8709-3.243,28.3453,3.9174l0.0027,0.0006
		c-0.3999,2.5347-2.4685,5.3583-2.643,8.2871c-1.4954,8.359,2.3384,16.7754,7.7058,22.9977
		c1.5272,2.1309,3.4325,4.7352,2.7148,7.5134c-0.9798,1.923-3.2911,2.5359-5.2968,2.5836
		c-12.0145,0.1835-23.9325-5.3496-31.5471-14.6561C263.4559,117.4681,261.1166,111.1189,256.4435,106.5339z M282.7159,169.9061
		c-5.5086-3.1798-10.2727-7.6507-13.7313-12.9931c-0.7567-1.3864,1.156-2.4633,2.0868-3.1341
		c8.2276-5.1092,15.5222-12.6421,25.6266-13.7471c3.5668,0.0709,7.144,0.3058,10.7005,0.5536
		c-2.4087,5.8836-2.6642,12.425-2.0662,18.6937c0.3887,3.3704,1.8228,6.5743,1.8109,9.9925
		c-0.0819,3.0327-3.024,4.8797-5.7686,5.1623c-0.6111,0.1082-1.2237,0.1874-1.8365,0.2391l-0.0011,0.0001
		C293.6129,175.172,287.6571,173.1035,282.7159,169.9061z M268.8777,311.2003c0.3271-0.1714,0.6541-0.3419,0.9822-0.5094
		c3.5393-1.8048,7.8735-0.3974,9.6784,3.1429c1.8038,3.5403,0.3974,7.8735-3.1429,9.6784c-0.2785,0.1417-0.556,0.2864-0.8336,0.4321
		c-1.0665,0.559-2.2092,0.8246-3.3362,0.8246c-2.5898,0-5.0914-1.4015-6.3779-3.8545
		C264.0023,317.3959,265.3582,313.0468,268.8777,311.2003z M241.7257,331.1251l0.7523-0.7354
		c2.8445-2.7752,7.4018-2.7187,10.174,0.1259c2.7752,2.8436,2.7187,7.3988-0.1259,10.174l-0.7087,0.6938
		c-1.4015,1.3787-3.2242,2.0655-5.0459,2.0655c-1.8613,0-3.7207-0.7176-5.1291-2.1488
		C238.8553,338.4674,238.893,333.9111,241.7257,331.1251z M256.6138,341.7204c16.5261-14.4679,38.4781-23.2058,60.4001-21.8419
		c21.922,1.3638,43.377,13.5035,54.0526,32.6989c8.585,15.4365,9.7631,34.7857,3.1143,51.1497
		c-8.3737,20.6092-27.6198,34.8696-47.6932,44.4569c-20.5081,9.7949-42.7972,15.846-65.4431,17.7668
		c-9.2816,0.7874-18.9968,0.8123-27.4462-3.109c-6.5126-3.0225-12.0217-8.9699-13.6803-15.7681
		c-5.4132-14.443-2.1921-34.1013,2.5602-50.0038C228.7672,376.025,240.0876,356.1882,256.6138,341.7204z M255.1139,487.498
		l-1.0407,0.0803c-0.1853,0.0139-0.3697,0.0208-0.5521,0.0208c-3.7267,0-6.8804-2.8743-7.1669-6.6515
		c-0.3003-3.9626,2.6681-7.4186,6.6307-7.7189l0.9971-0.0763c3.9507-0.2964,7.4266,2.6443,7.7388,6.6069
		C262.034,483.7208,259.0754,487.1848,255.1139,487.498z M230.3564,479.893c-1.2914,2.4382-3.7851,3.8297-6.3651,3.8297
		c-1.1358,0-2.2875-0.2696-3.3609-0.8375c-0.0485-0.0258-0.0963-0.0523-0.1447-0.0783c-0.059-0.0275-0.1198-0.047-0.1784-0.0763
		c-0.3766-0.1873-0.7513-0.3826-1.123-0.5838c-3.4947-1.8911-4.7941-6.258-2.902-9.7527c1.8921-3.4937,6.256-4.7951,9.7527-2.902
		c0.1051,0.0569,0.2114,0.1099,0.317,0.1651c0.2291,0.0972,0.4556,0.2064,0.6781,0.3295l0.334,0.1804
		C230.8757,472.0264,232.2157,476.3804,230.3564,479.893z M221.1299,357.4079l0.557-0.9128
		c2.0794-3.3857,6.5117-4.4452,9.8965-2.3638c3.3857,2.0794,4.4442,6.5107,2.3648,9.8965l-0.5085,0.8335
		c-1.3529,2.234-3.7276,3.47-6.1619,3.47c-1.2696,0-2.5541-0.336-3.7197-1.0417
		C220.1596,365.2319,219.0723,360.8075,221.1299,357.4079z M207.0806,387.3907l0.3479-0.9822
		c1.3281-3.7455,5.4393-5.705,9.1868-4.3738c3.7455,1.3291,5.703,5.4423,4.3739,9.1868l-0.334,0.9445
		c-1.0407,2.9585-3.8198,4.809-6.7873,4.809c-0.7929,0-1.5977-0.1318-2.3876-0.4093
		C207.7318,395.2464,205.7614,391.1391,207.0806,387.3907z M214.8323,451.2423l-0.0387,0.3539
		c-0.2093,2.1447-1.3435,3.973-2.9657,5.1395c-0.9639,1.0941-2.2626,1.9109-3.7928,2.2593
		c-0.5372,0.1219-1.0744,0.1804-1.6037,0.1804c-3.2836,0-6.2491-2.2628-7.0093-5.5999c-0.0852-0.3756-0.1665-0.7533-0.2458-1.1319
		c-0.7706-3.7112,1.4713-7.342,5.0574-8.3709c1.2717-0.6979,2.7635-1.0242,4.3177-0.8357
		C212.4962,443.7127,215.309,447.2967,214.8323,451.2423z M199.0554,419.4032l0.1606-1.0516
		c0.6125-3.9268,4.2916-6.6128,8.2175-6.0013c3.9269,0.6125,6.6128,4.2916,6.0013,8.2175l-0.1487,0.9703
		c-0.5352,3.5681-3.6048,6.1282-7.1064,6.1282c-0.3548,0-0.7146-0.0258-1.0764-0.0803
		C201.1735,426.9963,198.4657,423.3331,199.0554,419.4032z M251.1606,571.3804c-0.2763-0.0435-0.4651-0.3027-0.4216-0.579
		l0.0069-0.0441c1.3964-8.8766-0.9794-18.5431-7.3204-24.5471c-3.1221-3.0194-7.0089-5.1611-11.1526-6.5698
		c-4.1483-1.424-8.5441-2.1763-12.9797-2.5229c-2.1666-0.1647-4.5815-0.2889-6.9187-0.4982
		c-2.3499-0.2115-4.6995-0.4967-7.0476-0.8494c-4.6925-0.7267-9.3804-1.7777-13.9765-3.3279
		c-4.5882-1.5514-9.0858-3.645-13.2501-6.4364c-4.1709-2.7672-7.9455-6.361-10.8936-10.6295
		c-2.9499-4.2663-5.0065-9.2036-5.9832-14.3602c-1.0485-5.1895-0.7094-11.1082,1.5596-16.3282
		c2.205-5.2546,6.361-9.7796,11.3506-12.4408c1.2416-0.6727,2.5209-1.2483,3.8197-1.744c1.3028-0.4709,2.6317-0.8589,3.9613-1.1367
		c1.3486-0.2962,2.6202-0.4966,4.0318-0.6329c1.4976-0.1452,3.0396-0.1232,4.5746,0.0919c3.0677,0.4203,6.0802,1.6209,8.5094,3.4365
		c2.4643,1.7814,4.3845,4.083,5.7751,6.5727c1.4123,2.4869,2.2726,5.206,2.6438,8.0102c0.298,2.808,0.1622,5.7743-1.0517,8.6212
		c-0.5997,1.4078-1.4571,2.7804-2.6166,3.8881l-0.4306,0.4117l-0.409,0.3354c-0.2728,0.2224-0.541,0.4458-0.8392,0.6447
		c-0.5724,0.4155-1.1858,0.7884-1.8221,1.1192c-2.5379,1.3367-5.629,1.8193-8.3956,1.083c-2.756-0.7023-5.188-2.469-6.478-4.8983
		c-0.6317-1.2066-1.0308-2.5369-1.0169-3.8595c-0.0017-1.317,0.3029-2.5864,0.8534-3.6868c0.1009-0.1977,0.325-0.3177,0.5539-0.2741
		c0.278,0.0528,0.4605,0.3211,0.4076,0.599c-0.3983,2.1765,0.2007,4.2721,1.4877,5.6875c1.2887,1.4191,3.1159,2.2202,4.901,2.2888
		c1.7923,0.0521,3.4827-0.533,4.8689-1.6027c0.3466-0.2693,0.6796-0.5603,0.99-0.8857c0.1621-0.1494,0.3072-0.3286,0.455-0.5002
		l0.2221-0.2553l0.1438-0.2343c0.379-0.6095,0.6622-1.2891,0.8213-2.0548c0.6468-3.1024-0.5577-7.0429-2.6466-9.8382
		c-0.511-0.7178-1.1073-1.3513-1.7272-1.9169c-0.609-0.5811-1.2768-1.0578-1.9601-1.4543
		c-1.3721-0.7943-2.8235-1.2169-4.3336-1.3026c-0.7575-0.0366-1.5327,0.0186-2.3256,0.1263
		c-0.8775,0.1269-1.8807,0.3288-2.7721,0.576c-1.8227,0.5013-3.5393,1.1626-5.1059,2.0246
		c-1.5483,0.8877-2.963,1.9306-4.1826,3.1715c-1.1897,1.2613-2.2533,2.6596-3.034,4.2459
		c-0.7906,1.5758-1.3733,3.2927-1.6792,5.0953c-0.1547,0.9008-0.2307,1.8214-0.2537,2.7493
		c-0.0148,0.4644,0.0022,0.9302,0.0188,1.3978c0.0348,0.4851,0.0622,0.9867,0.1245,1.4776c0.43,3.954,1.7249,7.8334,3.8487,11.2691
		c4.2116,6.948,11.5359,11.9725,19.6399,15.1709c4.0604,1.6311,8.3323,2.8937,12.705,3.8427
		c2.1889,0.4669,4.3984,0.8745,6.6265,1.2136c2.2402,0.3395,4.4232,0.5835,6.8397,0.9155c4.7177,0.697,9.4226,1.8522,13.8866,3.746
		c4.4522,1.876,8.6676,4.5941,11.9394,8.2501c3.2789,3.6452,5.4657,8.1826,6.391,12.8741c0.893,4.7103,0.7789,9.4962-0.3629,14.0962
		C251.6676,571.2534,251.4215,571.4214,251.1606,571.3804z M208.9433,594.6207c-6.3982-1.1244-10.6734-7.2227-9.5491-13.6208
		c1.1244-6.3982,7.2226-10.6734,13.6208-9.5491c6.3982,1.1244,10.6734,7.2227,9.549,13.6208
		C221.4397,591.4698,215.3415,595.7451,208.9433,594.6207z M237.7308,616.3027c-0.9755,5.551-6.2662,9.2601-11.8172,8.2845
		s-9.2601-6.2662-8.2846-11.8172c0.9754-5.5509,6.2662-9.26,11.8171-8.2845C234.9971,605.4611,238.7062,610.7518,237.7308,616.3027z
		 M252.8857,641.4762c-0.7223,4.1101-4.6397,6.8564-8.7498,6.1342c-4.11-0.7223-6.8564-4.6397-6.1341-8.7498
		c0.7223-4.1101,4.6397-6.8565,8.7498-6.1342C250.8617,633.4487,253.608,637.3661,252.8857,641.4762z M262.0944,557.0675
		l-0.2289,1.9069l-0.6185-1.8177c-2.1518-6.3155-17.993-23.2084-34.0117-29.7191c-9.0213-3.6682-11.6954-11.515-9.6308-17.0366
		c1.453-3.8853,5.7922-7.5227,13.2554-4.9686C245.6733,510.4972,263.7585,543.1719,262.0944,557.0675z M261.243,488.6229
		c1.7127-2.2439,4.1479-3.2915,7.2194-3.0963c3.1637,0.1933,5.6306,1.6017,7.3334,4.1855c9.28,14.081-6.481,58.4916-7.157,60.3758
		l-0.3003,0.8375l-0.2864-0.8425C267.3752,548.0958,251.5884,501.2747,261.243,488.6229z M287.436,776.9495
		c0,0-24.3698-27.5065-24.3698-35.0264s23.8201-33.9692,23.8201-33.9692s24.6451,25.1104,24.3698,34.5189
		C310.9808,751.8813,287.436,776.9495,287.436,776.9495z M538.3387,700.9169c-1.899,6.0459-5.3868,10.2255-10.396,12.4446
		c-9.8657,4.3719-22.7207-0.6254-28.4901-3.3718c-3.2261,4.3798-7.2928,6.9706-12.1245,7.715
		c-0.9435,0.1447-1.8881,0.2121-2.8287,0.2121c-8.048,0-15.7531-4.9279-19.7473-7.9747c-4.1925,4.252-9.0758,6.6634-14.5567,7.1798
		c-8.9093,0.8345-16.9702-3.6613-21.015-6.4424c-4.3333,4.0904-9.2701,6.2867-14.7114,6.5405
		c-8.7606,0.4034-16.4042-4.4531-20.0972-7.3076c-13.6231,9.498-27.2472,5.6941-34.1148,1.4213
		c-23.3947,9.4217-36.0515-4.919-40.1557-10.9917c-7.0707,1.4302-12.7648,0.4698-16.9612-2.8713
		c-3.8178-3.0388-5.4443-7.376-6.1331-10.7339c-3.2152,0.5996-6.5246,0.0714-9.6477-1.6017
		c-5.141-2.7514-8.826-8.2274-9.171-13.6241c-0.0149-0.2341-0.0039-0.4636,0.0253-0.6877c-0.1506-0.4969-0.2059-1.0297-0.1194-1.577
		c3.5505-22.4691,1.2991-39.3798,1.0566-41.0634c-1.1629-1.2373-1.3094-3.16-0.2518-4.5594
		c0.7433-0.9842,7.5078-9.612,16.1594-9.7885c2.0963-0.0258,4.8833,0.4232,7.7645,2.4303c2.3708-3.5135,6.483-8.161,12.2613-9.5297
		c4.4868-1.0585,9.0461-0.0258,13.5864,3.0834c4.2678-2.3262,14.0235-6.6802,23.5067-4.0914
		c5.2391,1.4292,9.5396,4.692,12.8253,9.7191c4.0656-2.6959,11.2018-6.3631,18.7522-5.2907
		c4.812,0.6849,8.9876,3.1221,12.4546,7.2601c4.0587-3.1409,11.6369-7.8319,20.0704-7.4196
		c5.253,0.2646,9.9857,2.4154,14.1107,6.4077c4.2123-3.3322,12.6419-8.7805,21.5284-7.6188
		c5.3323,0.6968,9.9034,3.5731,13.6281,8.5634c7.3948-4.1083,19.6314-7.5703,29.5189-0.4767
		c3.2608-3.5403,9.5515-9.0847,17.7383-10.1918c5.7892-0.782,11.4337,0.7463,16.8136,4.5493
		c3.8644-2.1676,12.0046-5.8387,19.2666-3.2579c3.9388,1.4005,6.9557,4.3115,9.0045,8.6783
		c2.7345-1.1824,6.5861-2.2072,10.6893-1.2983c4.7991,1.0625,8.7111,4.4006,11.629,9.9193c0.614,1.1605,0.5073,2.4987-0.1414,3.5371
		c0.0226,0.2712,0.0233,0.547-0.0192,0.8278c-0.0317,0.2101-3.128,21.3024,1.9902,40.4084c0.0693,0.2587,0.1023,0.5177,0.113,0.7747
		c0.0002,0.0002,0.0006,0.0002,0.001,0.0004c1.7375,0.9099,2.4094,3.0566,1.5006,4.7951
		c-3.0804,5.8863-7.1659,9.5466-12.1434,10.8796c-3.7604,1.006-7.2382,0.4232-9.728-0.3776
		C556.3783,697.0525,545.5204,700.4996,538.3387,700.9169z M563.1719,776.9495c0,0-24.3698-27.5065-24.3698-35.0264
		s23.82-33.9692,23.82-33.9692s24.6452,25.1104,24.3699,34.5189C586.7166,751.8813,563.1719,776.9495,563.1719,776.9495z
		 M587.0339,568.5927c-0.2357,3.7468-0.9065,7.2358-1.9802,10.7668c-1.0765,3.5146-2.7148,6.9971-5.0648,10.1068
		c-2.3523,3.098-5.5107,5.7447-9.1144,7.3806c-3.5969,1.6584-7.5104,2.3187-11.2543,2.2283
		c-3.7569-0.0894-7.3796-0.8778-10.7645-2.1342c-6.7332-2.5758-12.7133-6.8845-16.9414-12.7747
		c-2.0816-2.9479-3.6798-6.371-4.2462-10.0832c-0.5952-3.6978,0.0175-7.6238,1.675-10.9069
		c0.8331-1.6689,1.7872-3.0562,2.8573-4.4926c1.082-1.4011,2.3378-2.691,3.7343-3.8217c2.7797-2.2722,6.3321-3.742,9.942-3.8624
		c3.606-0.1328,7.1416,0.9398,10.0581,2.8561c2.8864,1.9248,5.3187,4.739,6.1669,8.1922c0.0815,0.3356-0.1072,0.6851-0.441,0.7942
		c-0.3507,0.1147-0.7278-0.0767-0.8423-0.4274l-0.0059-0.0179c-0.957-2.9272-3.2977-5.2657-5.9643-6.759
		c-2.6932-1.489-5.8101-2.1473-8.7643-1.807c-2.9654,0.3095-5.7166,1.6631-7.8901,3.6877
		c-2.1832,1.9862-3.9008,4.6694-5.0907,7.3732c-1.121,2.678-1.3525,5.5755-0.7233,8.3351c0.6145,2.7654,2.0273,5.3798,3.8862,7.6667
		c3.748,4.5807,9.1318,7.9288,14.7738,9.6646c5.6296,1.7521,11.751,1.72,16.3788-0.7874c2.3164-1.2309,4.2403-3.0412,5.7373-5.2574
		c1.4914-2.2267,2.5492-4.8448,3.2665-7.6382c0.7122-2.7876,1.1437-5.8185,1.1757-8.6359c0.033-2.8391-0.3515-5.553-1.2438-8.0013
		c-1.7103-4.9187-5.6161-8.7912-10.6146-11.8206c-4.998-3.0422-10.8839-5.2428-16.9348-7.2217
		c-6.0678-1.9883-12.3916-3.692-18.7551-5.725c-3.1876-0.9959-6.3898-2.0832-9.5811-3.3076c-3.2047-1.1993-6.39-2.564-9.5403-4.1294
		c-3.1478-1.5182-6.3027-3.3511-9.23-5.34c-2.9521-1.9944-5.8369-4.1593-8.5065-6.6616c-2.6861-2.4706-5.2112-5.2173-7.395-8.3084
		c-2.188-3.0819-4.062-6.5052-5.3034-10.2598c-1.2654-3.7346-1.8641-7.8153-1.5019-11.9056
		c0.3474-4.0839,1.7559-8.1519,4.2189-11.5709c2.4481-3.3843,6.0719-6.2251,10.4304-7.1193
		c2.1463-0.4694,4.4102-0.4391,6.4979,0.0717c0.5248,0.1189,1.0315,0.2856,1.5334,0.454c0.4977,0.1907,0.9957,0.3892,1.3669,0.5775
		c0.8115,0.3651,1.6065,0.786,2.3886,1.2232c3.1042,1.7816,6.0957,4.0476,8.2229,7.0842c2.1143,3.015,3.3231,6.7163,2.6156,10.338
		c-0.0547,0.2793-0.2862,0.5029-0.584,0.5335c-0.365,0.0376-0.6913-0.2278-0.7289-0.5928l-0.0117-0.113
		c-0.1479-1.4372-0.6729-2.9623-1.4224-4.2286c-0.7315-1.297-1.6935-2.4291-2.7871-3.3997
		c-2.2179-1.9204-4.8846-3.282-7.7531-4.1913c-0.7244-0.2158-1.4406-0.4375-2.1742-0.6306
		c-0.3911-0.1183-0.6771-0.1642-0.962-0.2218c-0.2931-0.0357-0.5808-0.0796-0.8682-0.0865
		c-1.1467-0.0583-2.2449,0.1466-3.2559,0.5827c-2.015,0.8655-3.7294,2.5613-4.813,4.6745c-1.1065,2.1133-1.5239,4.591-1.4601,7.0568
		c0.0905,2.482,0.7466,4.9834,1.8237,7.3784c2.179,4.8027,6.0102,9.1082,10.5326,12.7744c2.2691,1.8307,4.7162,3.5316,7.2695,5.1149
		c1.2932,0.7893,2.5814,1.5417,3.9049,2.2304c1.3171,0.7095,2.6589,1.4116,4.0354,2.0706c2.751,1.3201,5.6128,2.5322,8.5161,3.7466
		c2.9231,1.175,5.8978,2.3253,8.9176,3.4757c6.046,2.2751,12.2473,4.5464,18.5154,7.0779
		c6.2492,2.5699,12.6134,5.3745,18.6811,9.4567c3.0091,2.0642,5.9396,4.4951,8.4509,7.483c2.5182,2.9667,4.53,6.5527,5.6725,10.3495
		C586.9382,560.9554,587.2549,564.8762,587.0339,568.5927z M589.4515,551.8671l-0.2864,0.8425l-0.3004-0.8375
		c-0.676-1.8842-16.437-46.2948-7.158-60.3768c1.7028-2.5839,4.1707-3.9923,7.3334-4.1855
		c3.0864-0.1953,5.5078,0.8534,7.2194,3.0963C605.9152,503.0587,590.1285,549.8798,589.4515,551.8671z M597.107,558.9407
		l-0.6185,1.8187l-0.2289-1.9079c-1.6641-13.8957,16.4211-46.5703,31.2336-51.636c7.4602-2.5522,11.8033,1.0843,13.2563,4.9695
		c2.0646,5.5216-0.6095,13.3684-9.6308,17.0366C615.1,535.7324,599.2588,552.6252,597.107,558.9407z M649.5532,570.5085
		c6.3981-1.1243,12.4963,3.1509,13.6207,9.5491c1.1245,6.3981-3.1508,12.4964-9.5491,13.6208
		c-6.3981,1.1245-12.4964-3.1508-13.6207-9.549S643.155,571.6329,649.5532,570.5085z M633.122,603.5432
		c5.551-0.9755,10.8418,2.7336,11.8173,8.2846c0.9754,5.5509-2.7338,10.8417-8.2846,11.8171
		c-5.551,0.9755-10.8417-2.7336-11.8173-8.2845S627.571,604.5187,633.122,603.5432z M615.8166,631.7841
		c4.1101-0.7223,8.0276,2.0241,8.7499,6.1342c0.7223,4.11-2.024,8.0275-6.1343,8.7498c-4.1099,0.7223-8.0274-2.024-8.7497-6.1342
		C608.9602,636.4238,611.7065,632.5063,615.8166,631.7841z M695.0829,506.598c-0.9767,5.1566-3.0333,10.0939-5.9832,14.3602
		c-2.9481,4.2685-6.7226,7.8623-10.8935,10.6296c-4.1642,2.7914-8.662,4.8849-13.2502,6.4364
		c-4.5958,1.5501-9.2839,2.6011-13.9764,3.3278c-2.3481,0.3527-4.6977,0.6379-7.0475,0.8495
		c-2.3372,0.2092-4.7521,0.3334-6.9187,0.4982c-4.4356,0.3465-8.8312,1.0989-12.9797,2.5228
		c-4.1437,1.4088-8.0305,3.5504-11.1527,6.5699c-6.341,6.004-8.7167,15.6704-7.3204,24.5471l0.007,0.044
		c0.0435,0.2764-0.1453,0.5356-0.4216,0.5791c-0.2609,0.041-0.5071-0.1271-0.5703-0.3783c-1.1418-4.6-1.2559-9.386-0.3629-14.0962
		c0.9252-4.6915,3.1121-9.229,6.3911-12.8742c3.2717-3.656,7.4871-6.374,11.9393-8.2501c4.464-1.8937,9.1689-3.049,13.8867-3.7459
		c2.4165-0.332,4.5995-0.576,6.8397-0.9155c2.2282-0.3391,4.4377-0.7466,6.6266-1.2136c4.3726-0.9489,8.6444-2.2115,12.7048-3.8426
		c8.104-3.1985,15.4285-8.223,19.64-15.171c2.1238-3.4358,3.4187-7.3151,3.8486-11.2691c0.0624-0.4908,0.0897-0.9924,0.1246-1.4776
		c0.0166-0.4676,0.0334-0.9334,0.0189-1.3978c-0.0231-0.9279-0.0991-1.8486-0.2537-2.7493
		c-0.306-1.8027-0.8888-3.5196-1.6793-5.0954c-0.7808-1.5862-1.8442-2.9846-3.0341-4.2459
		c-1.2196-1.241-2.6342-2.2838-4.1826-3.1716c-1.5665-0.862-3.2831-1.5233-5.1058-2.0246c-0.8915-0.2472-1.8946-0.4492-2.7722-0.576
		c-0.7929-0.1077-1.568-0.1629-2.3254-0.1263c-1.5103,0.0856-2.9615,0.5082-4.3337,1.3025c-0.6832,0.3965-1.3509,0.8733-1.96,1.4543
		c-0.6199,0.5656-1.2161,1.1991-1.7273,1.9169c-2.0888,2.7953-3.2934,6.7358-2.6465,9.8382
		c0.1591,0.7657,0.4423,1.4453,0.8212,2.0548l0.1439,0.2343l0.222,0.2553c0.1479,0.1716,0.2929,0.3507,0.4551,0.5002
		c0.3104,0.3253,0.6434,0.6164,0.99,0.8856c1.3861,1.0697,3.0765,1.6548,4.869,1.6027c1.785-0.0686,3.6122-0.8697,4.9009-2.2888
		c1.287-1.4154,1.8862-3.511,1.4877-5.6875c-0.0528-0.278,0.1296-0.5462,0.4076-0.599c0.2289-0.0435,0.4532,0.0764,0.554,0.2741
		c0.5504,1.1004,0.8551,2.3698,0.8534,3.6868c0.0139,1.3227-0.3853,2.6529-1.0169,3.8595c-1.2902,2.4293-3.7222,4.196-6.478,4.8983
		c-2.7668,0.7362-5.8578,0.2536-8.3956-1.083c-0.6363-0.3307-1.2498-0.7036-1.8222-1.1192
		c-0.2982-0.1988-0.5665-0.4222-0.8392-0.6447l-0.409-0.3354l-0.4306-0.4117c-1.1595-1.1077-2.0168-2.4803-2.6166-3.8881
		c-1.2139-2.8469-1.3497-5.8132-1.0517-8.6212c0.3713-2.8041,1.2316-5.5233,2.6439-8.0101
		c1.3907-2.4897,3.3109-4.7913,5.7752-6.5727c2.4291-1.8156,5.4417-3.0162,8.5095-3.4365c1.535-0.215,3.077-0.2371,4.5746-0.0919
		c1.4116,0.1364,2.6832,0.3368,4.0317,0.6329c1.3296,0.2778,2.6584,0.6659,3.9613,1.1367c1.2989,0.4956,2.5782,1.0712,3.8198,1.744
		c4.9896,2.6612,9.1454,7.1861,11.3505,12.4408C695.7923,495.4897,696.1315,501.4084,695.0829,506.598z"/>
	<path d="M554.6765,679.0853c-1.2778-5.8029-2.0407-12.807-2.481-19.869c-5.5715,1.1744-11.5462,2.2572-17.7479,3.2552
		c0.7847,10.6594,2.0078,21.5737,3.9089,30.6958c0.0414,0.1994,0.0551,0.3974,0.0625,0.5943
		c4.5439-0.3758,13.8273-2.4152,17.7375-12.5118C555.4315,680.7576,554.8795,680.0081,554.6765,679.0853z"/>
	<path d="M399.1893,844.4357c1.6426,0.1596,3.2856,0.3081,4.9284,0.4402c9.635,0.7747,19.3382,1.1694,29.0422,1.12
		c-6.3918-1.7833-16.3667-5.0208-28.1957-10.4437C403.5481,839.8404,401.4283,842.6517,399.1893,844.4357z"/>
	<path d="M536.7766,786.4368c-2.7117,3.1982-7.2302,8.222-13.4692,14.1557c0.4055,2.9961,2.8453,16.0103,14.9083,21.1954
		c6.9113-3.7321,13.5563-7.926,19.8535-12.5854C545.1682,803.5713,539.2266,792.6909,536.7766,786.4368z"/>
	<path d="M382.4919,823.5425c-1.7686,8.826-7.3913,13.7428-12.4572,16.4452c6.3329,1.3461,12.722,2.4344,19.1358,3.2902
		c0.4947-0.8151,1.4251-1.3182,2.4321-1.2119c0.3257,0.0267,6.0657,0.3543,8.7506-8.6978
		C394.6848,830.6006,388.675,827.3512,382.4919,823.5425z"/>
	<path d="M474.3446,835.5838c-6.8004,3.5214-14.1083,6.8014-21.8872,9.6937c8.409-0.6003,16.7821-1.5975,25.0797-3.0272
		c-0.1482-0.144-0.2996-0.2836-0.4388-0.4394C475.4659,839.9858,474.6931,837.66,474.3446,835.5838z"/>
	<path d="M425.99,825.8359c3.7621,4.3852,7.8453,8.5658,12.2603,12.3804c0.113-4.1187,0.1333-9.1152,0.0877-14.6006
		C434.1991,825.8096,429.825,826.2427,425.99,825.8359z"/>
	<path d="M496.7014,822.1592c-5.3692,3.6934-11.2151,7.3546-17.525,10.8399c0.0805,1.7628,0.4771,4.0647,1.7118,5.4376
		c0.7883,0.8755,1.8942,1.3004,3.3811,1.2969c0.7609-0.0023,1.4366,0.3378,1.903,0.8673c1.4877-0.3151,2.9739-0.6365,4.4551-0.9821
		c5.4411-1.2692,10.8408-2.7706,16.1729-4.4909C501.3898,832.2881,498.2302,826.7872,496.7014,822.1592z"/>
	<path d="M345.2287,786.6008c4.386,4.7194,8.8806,9.0611,13.4175,13.054c4.2569,0.3593,29.5394,1.679,34.7479-16.8962
		c0.0344-0.1227,0.0935-0.2333,0.145-0.3478c-2.7768-6.3782-4.783-11.8014-6.0856-15.5948
		C376.3216,782.4649,354.9274,785.8711,345.2287,786.6008z"/>
	<path d="M355.2215,803.3955c-4.86-4.2794-9.6731-8.9429-14.3586-14.035c-8.2993,17.1105-23.6341,24.2467-31.4689,26.8844
		c7.583,4.8083,15.6088,8.9702,23.9454,12.4553c0.9283,0.3881,1.8642,0.7567,2.7985,1.1295
		C342.6228,825.4859,355.4181,815.3818,355.2215,803.3955z"/>
	<path d="M420.1057,826.7943c-0.6011,1.3893-1.4632,2.6223-2.596,3.6827c-1.4565,1.3633-3.2038,2.2746-4.9715,2.8865
		c8.5847,3.6321,15.8629,6.0063,20.9986,7.4742C428.6511,836.4818,424.1797,831.7343,420.1057,826.7943z"/>
	<path d="M518.9295,804.6404c-5.0637,4.5533-11.0192,9.4735-17.8327,14.4144c0.9666,3.7504,4.1286,12.3787,12.8427,12.8868
		c0.4008,0.0237,0.769,0.1472,1.0962,0.3326c6.0112-2.2396,11.9078-4.7806,17.646-7.6232
		C523.7036,819.2013,520.2328,810.0068,518.9295,804.6404z"/>
	<path d="M393.0173,767.2214c1.4401,3.9769,3.5089,9.2875,6.2482,15.3622c5.3059,2.9158,20.7671,9.028,37.4342-6.7603
		c0.105-0.0996,0.2193-0.1833,0.3359-0.2617c-0.2727-6.9971-0.5311-12.9643-0.7115-16.9785
		C419.2159,773.0247,402.1778,770.3958,393.0173,767.2214z"/>
	<path d="M402.4728,789.3829c2.1049,4.2734,4.5001,8.7798,7.1962,13.3607c4.5956,1.6763,18.056,5.3625,26.8141-4.9402
		c0.3415-0.4016,0.7989-0.6703,1.2979-0.8003c-0.1539-5.1255-0.3258-10.1814-0.4998-14.9394
		C423.5668,793.3032,410.514,792.0421,402.4728,789.3829z"/>
	<path d="M464.8867,831.0518c-1.8467-1.3284-3.1892-2.9982-4.1797-4.6616c-3.7465,5.4836-7.6784,10.5378-11.7225,14.7696
		c6.8811-2.4808,13.3842-5.2795,19.4948-8.2849C467.1981,832.4471,465.9956,831.8469,464.8867,831.0518z"/>
	<path d="M518.4104,798.2678c5.2738-4.9261,9.382-9.2791,12.266-12.529c-18.8618,2.6807-33.1626-12.6924-38.9637-20.2762
		c-1.3745,3.4701-3.5141,8.7039-6.2706,14.931C487.5205,783.6181,500.9949,803.1849,518.4104,798.2678z"/>
	<path d="M377.8216,820.5762c-5.885-3.8479-11.881-8.2044-17.8456-13.1263c-1.8597,10.8606-11.3352,19.5931-18.0987,24.5741
		c6.3343,2.2917,12.7909,4.2411,19.325,5.9035C364.645,837.2281,376.3299,833.8845,377.8216,820.5762z"/>
	<path d="M479.7011,780.6887c2.5302-5.6072,4.6079-10.5302,6.1268-14.2457c-15.6522,6.7244-35.7908-3.4314-44.4561-8.6277
		c0.2018,4.4301,0.5096,11.4576,0.8264,19.7232C447.8582,782.0471,464.422,792.9457,479.7011,780.6887z"/>
	<path d="M396.4655,788.8484c-6.5618,13.1105-22.2907,15.687-31.6672,15.9938c5.9549,4.8098,11.9269,9.0473,17.7671,12.7704
		c4.3078,0.168,15.6213-0.7262,21.8397-13.6216C401.3693,798.7466,398.7289,793.6245,396.4655,788.8484z"/>
	<path d="M414.0518,826.7629c1.3229-1.2439,1.9691-2.9302,1.9865-5.131c-3.1265-4.1493-5.9882-8.3792-8.5976-12.5795
		c-5.0134,8.302-12.0726,11.6234-17.7747,12.8843c4.913,2.8535,9.6796,5.3447,14.2062,7.5155
		C406.0212,829.5947,411.2846,829.3649,414.0518,826.7629z"/>
	<path d="M471.6407,808.4475c-2.43,4.4105-5.0046,8.8054-7.6943,13.0293c0.6643,1.7557,1.828,3.9304,3.8135,5.3902
		c0.0359,0.0264,0.0715,0.0526,0.1084,0.0784c2.1516,1.5309,4.9573,1.9699,8.3382,1.3051c0.3531-0.0692,0.7094-0.05,1.0511,0.0277
		c4.2091-2.3386,8.2073-4.7548,11.9837-7.2054C481.2842,819.554,475.0132,812.8695,471.6407,808.4475z"/>
	<path d="M469.8402,800.9848c2.1446-4.0839,4.1591-8.1325,6.0132-12.0112c-13.2016,5.8347-26.2173-0.3272-33.4197-5.0817
		c0.1892,5.2785,0.3729,10.8754,0.5298,16.4998C447.0092,803.6215,455.9359,808.0709,469.8402,800.9848z"/>
	<path d="M497.2856,815.3713c0.1504-0.0596,0.3063-0.0954,0.4624-0.1251c5.1992-3.7504,9.8903-7.4913,14.0541-11.0633
		c-14.0108-0.4278-24.4542-12.4007-28.8039-18.3707c-2.5336,5.5108-5.4536,11.541-8.6768,17.6611
		C477.325,807.8365,486.6349,819.588,497.2856,815.3713z"/>
	<path d="M443.402,822.7232c0.0569,6.4642,0.026,12.3248-0.134,17.0002c4.4456-4.2625,8.8092-9.7261,12.9684-15.799
		C451.4276,825.283,446.811,824.2774,443.402,822.7232z"/>
	<path d="M459.105,816.8998c0.5731-0.4308,1.2922-0.5811,1.9813-0.4543c1.6805-2.73,3.3136-5.5268,4.8938-8.3442
		c-10.2064,3.3763-17.8832,1.2037-22.8579-1.6061c0.0847,3.52,0.1556,7.0054,0.2079,10.3863
		C445.3243,818.2165,452.2312,822.067,459.105,816.8998z"/>
	<path d="M438.2664,817.626c-0.0699-4.5436-0.1744-9.3034-0.3008-14.0913c-7.8342,7.0461-17.7377,6.8088-24.4408,5.4719
		c2.218,3.4441,4.6068,6.8864,7.1693,10.2624C423.389,820.4196,431.4222,823.0796,438.2664,817.626z"/>
	<path d="M417.4911,531.7805c11.6332,1.0367,12.3355-8.2432,12.3355-8.2432s0.4013,9.2993,12.1567,8.2432
		c13.1144-1.1782,9.3212-20.8017,6.6789-27.1692c-2.6422-6.3675-18.9249-31.8965-18.9249-31.8965s-16.2828,25.5289-18.9252,31.8965
		S404.3759,530.6117,417.4911,531.7805z"/>
	<path d="M630.5587,213.5929c-7.0891,2.5843-10.741,10.4262-8.1568,17.5153c2.5844,7.0892,10.4263,10.7411,17.5153,8.1568
		c7.0893-2.5843,10.7411-10.4262,8.1567-17.5154C645.4899,214.6605,637.6479,211.0086,630.5587,213.5929z"/>
	
		<ellipse transform="matrix(0.9882 -0.1533 0.1533 0.9882 -31.9721 38.2036)" cx="231.7498" cy="226.4289" rx="13.6624" ry="13.6623"/>
</g>
</svg>
