<?xml version="1.0" encoding="utf-8"?>
<!-- Generator: Adobe Illustrator 24.2.3, SVG Export Plug-In . SVG Version: 6.00 Build 0)  -->
<svg version="1.0" id="Layer_1" xmlns="http://www.w3.org/2000/svg" xmlns:xlink="http://www.w3.org/1999/xlink" x="0px" y="0px"
	 viewBox="0 0 331.5 325.6" style="enable-background:new 0 0 331.5 325.6;" xml:space="preserve">
<path style="fill:#FFFFFF;" d="M28,4.9c-0.7,0,1,3.3,1.3,4c-2.5-4,0.1-0.2,0.2,1.6C29,9.1,28.3,7,27.4,5.9c0.5,1.4,1,2.8,1.5,4.2
	c-0.3-0.4-0.6-1.3-0.9-1.7c1.1,4.5-2.2-3.2-2-5c0,0.1-0.1,0.3-0.1,0.4C25.9,3,25.8,2,26,1.3C20-0.5,7.6,2.2,0,0.4
	c6.3-3.1,16.4,0.5,24.3-0.1c2.1-0.2,0.4-1.1,0.5-5.3c0.2,1.3,0.5,2.7,1.1,3.6c-0.7-3.4-0.3-6.9-0.3-10.3C26.1-9,25.5-6.2,26-3.5
	c-0.1-11.9,0.3,2,2.2-8.6c-1.4,10.4,2.1-5.6,0,4.3c0.7-1.4,1.3-2.8,2-4.2c-0.6,1.4-2.9,7.2-1.5,3.6c0.1,2.6,0.4-1.2,1.7-1.3
	c-2.5,4-5.7,10.9-1,2.9c8-10.1-6.7,9.1,3.7-3.5c0.8,1-7.1,7.7-2.1,4.6c-2,1.7-4.1,4.3-0.5,1.1c-4.6,5,0.9-0.3,5.3-0.8
	C29.9-2.5,23.7,0,34.2-0.9c-1.3,0.3-2.6,0.1-3.8,0.6c4.1,0-0.6,0.2-2.3,0.7c6.3,1.2-3.8-0.6,0.7,0.9c-3.5-1.3,3.8,1.8,3.5,2.1
	C32,4,28.5,2.1,28.1,1.9c1.7,2.3,5,3.1,6.9,4.9c-6.5-3,0.2,1.5-0.8,1.8c0.9,1.4-3-2.4-3.9-2.5c3.9,3.4,1.3,1.3,2.7,3.5
	C31.1,8.5,25.5,1.5,28,4.9z M27.8,9.2c0-1.4-0.9-3.5-1.3-4.9C26.3,5.6,27.2,7.8,27.8,9.2z M25.6-3.5c0.2-0.6-0.3-1.2-0.4-1.9
	C25.2-4.4,25.6-4.5,25.6-3.5z"/>
</svg>
