<?xml version="1.0" encoding="utf-8"?>
<!-- Generator: Adobe Illustrator 24.2.3, SVG Export Plug-In . SVG Version: 6.00 Build 0)  -->
<svg version="1.0" id="Layer_1" xmlns="http://www.w3.org/2000/svg" xmlns:xlink="http://www.w3.org/1999/xlink" x="0px" y="0px"
	 viewBox="0 0 252.2 251.1" enable-background="new 0 0 252.2 251.1" xml:space="preserve">
<path fill="none" stroke="#FFFFFF" stroke-width="4" stroke-miterlimit="10" d="M45-125c0,0,5,8.7-17,56.7s-31,102-8,119
	s104,74,104,74s-129-20-168-65s-32-84-47-92s-31.5,22.8-31.5,22.8"/>
<path fill="none" stroke="#FFFFFF" stroke-width="4" stroke-miterlimit="10" d="M-123,40.7c0,0,14-50,26-43s4,63,22,76
	s125,49,125,49"/>
<path fill="none" stroke="#FFFFFF" stroke-width="4" stroke-miterlimit="10" d="M122,88.7c0,0-83-38-86-59s-2.7-65.9,20-83
	c36-27,5-69,5-69"/>
<rect x="-124" y="-124.7" fill="none" stroke="#FFFFFF" stroke-width="4" stroke-miterlimit="10" width="248.1" height="249.4"/>
<path fill="#FF7D2A" d="M-123,82.7"/>
<path fill="#FFFFFF" d="M-123,82.7l-1.1,42l108.1-1c0,0-67-26-79-36s-8-44-14-46S-123,82.7-123,82.7z"/>
<ellipse fill="#FF0000" cx="20" cy="2.9" rx="76" ry="56.9"/>
<ellipse fill="#FFFFFF" cx="-53.3" cy="-68.5" rx="16.8" ry="10.5"/>
</svg>
